<svg enable-background="new 0 0 512 512" viewBox="0 0 512 512" xmlns="http://www.w3.org/2000/svg"><path fill="#27A2AF" d="m403.505 14.385c-5.132-8.873-14.686-14.385-24.929-14.385h-107.06v126.637h196.913z"/><path  fill="#27A2AF" d="m133.435 0c-10.264 0-19.817 5.522-24.949 14.415l-64.685 112.222h197.703v-126.637z"/><path fill="#27A2AF" d="m316.908 345.398c-8.913 0-13.369 4.322-13.369 12.965v38.355c0 8.643 4.456 12.965 13.369 12.965 9.091 0 13.641-4.322 13.641-12.965v-38.355c-.001-8.643-4.551-12.965-13.641-12.965z"/><path fill="#27A2AF"  d="m194.822 258.426c-8.913 0-13.37 4.322-13.37 12.965v38.354c0 8.643 4.457 12.965 13.37 12.965 9.09 0 13.64-4.322 13.64-12.965v-38.354c0-8.643-4.549-12.965-13.64-12.965z"/><path fill="#27A2AF" d="m33.057 156.648v320.069c0 19.457 15.836 35.283 35.293 35.283h375.3c19.457 0 35.293-15.826 35.293-35.283v-320.069zm133.076 180.782c-7.074-5.849-10.61-15.079-10.61-27.685v-38.354c0-12.603 3.536-21.831 10.61-27.685 7.074-5.85 16.636-8.778 28.69-8.778 11.956 0 21.54 2.929 28.754 8.778 7.208 5.854 10.817 15.083 10.817 27.685v38.354c0 12.607-3.608 21.836-10.817 27.685-7.213 5.854-16.797 8.778-28.754 8.778-12.054 0-21.617-2.925-28.69-8.778zm44.663 107.365c-4.331 0-7.939-1.486-10.825-4.457-2.887-2.971-4.331-6.258-4.331-9.858 0-1.621.438-3.33 1.326-5.132l93.122-194.743c2.118-4.499 5.832-6.753 11.142-6.753 3.962 0 7.613 1.352 10.947 4.052 3.333 2.7 5.001 6.123 5.001 10.264 0 1.983-.354 3.692-1.06 5.132l-93.383 194.742c-2.126 4.499-6.107 6.753-11.939 6.753zm145.681-48.077c0 12.606-3.608 21.835-10.817 27.685-7.212 5.854-16.796 8.777-28.753 8.777-12.053 0-21.616-2.924-28.69-8.777-7.073-5.85-10.61-15.08-10.61-27.685v-38.355c0-12.602 3.537-21.831 10.61-27.685 7.073-5.849 16.636-8.777 28.69-8.777 11.956 0 21.541 2.929 28.753 8.777 7.209 5.854 10.817 15.084 10.817 27.685z"/></svg>