<svg xmlns="http://www.w3.org/2000/svg" width="250" height="70" viewBox="0 0 606.91 126.278">
  <g id="Group_63" data-name="Group 63" transform="translate(1165.91 304.91)">
    <text id="SHHHEEP" transform="translate(-794 -223)" fill="#EDEDED" font-size="50" font-family="HelveticaNeue, Helvetica Neue"><tspan x="0" y="0">SHHHEEP</tspan></text>
    <text id="GIVE_ME" data-name="GIVE ME" transform="translate(-1009 -223)" fill="#EDEDED" font-size="50" font-family="HelveticaNeue, Helvetica Neue"><tspan x="0" y="0">GIVE ME</tspan></text>
    <g id="GMS_logo_white-blue-gray_S" transform="translate(-1165 -304)">
      <ellipse id="Ellipse_1" data-name="Ellipse 1" cx="64.997" cy="62.229" rx="64.997" ry="62.229" fill="#707070" stroke="#27a2af" stroke-miterlimit="10" stroke-width="1.82"/>
      <path id="Path_1" data-name="Path 1" d="M351.6,341.046c-3.062-.708,16.2,4.86,21.379,2.927,3.221-1.209-14.945-9.123-14.945-9.123Z" transform="translate(-259.684 -282.165)" fill="#fff" stroke="#27a2af" stroke-miterlimit="10" stroke-width="1.3"/>
      <path id="Path_2" data-name="Path 2" d="M348.328,350.129c-2.171-1.591,10.793,9.346,16.353,9.95,3.468.374-9.178-13.919-9.178-13.919Z" transform="translate(-259.032 -284.48)" fill="#fff" stroke="#27a2af" stroke-miterlimit="10" stroke-width="1.3"/>
      <path id="Path_3" data-name="Path 3" d="M360.756,376.931l-8.653,3.977a10.731,10.731,0,0,0-1.392.8l-7.794,5.114a3.746,3.746,0,0,1-4.971-1.273l-2.641-4.382-2.688-4.454a3.388,3.388,0,0,1,.74-4.343,3.657,3.657,0,0,1,.931-.557l7.691-3.317a15.4,15.4,0,0,0,2.561-1.408l6.983-4.772a3.078,3.078,0,0,1,.708-.39,3.722,3.722,0,0,1,4.526,1.479l2.561,4.247,2.768,4.589a3.42,3.42,0,0,1-1.328,4.693Z" transform="translate(-255.769 -287.651)" fill="#ededed" stroke="#27a2af" stroke-miterlimit="10" stroke-width="1"/>
      <path id="Path_4" data-name="Path 4" d="M255.892,370.419c1.392-1.09,4.772-10.618,4.772-10.618s2.211-8.988,2.831-10.515a1.861,1.861,0,0,1,.4-1.336,1.177,1.177,0,0,1,.859.756c.3.859,4.279.374,7.238,1.75s6.745,2.879,6.745,2.879a.931.931,0,0,1,.6,1.193l-7.612,21.141a1,1,0,0,1-1.249.581s-12.662-4.772-13.982-4.629S254.5,371.509,255.892,370.419Z" transform="translate(-240.009 -284.846)" fill="#ededed" stroke="#27a2af" stroke-miterlimit="10" stroke-width="1"/>
      <path id="Path_5" data-name="Path 5" d="M276.89,363.4l-9.242-2.474a10.7,10.7,0,0,0-1.591-.3l-9.775-1.718c-1.957.756-2.7-.223-1.273-1.845l1.082-6.522.652-5.838c-.843-1.957-.422-2.76,2-1.511.326.159,1.432-.469,1.782-.374l8.065,2.386a15.6,15.6,0,0,0,2.9.557l8.558.8a3.977,3.977,0,0,1,.8.151,3.484,3.484,0,0,1,2.386,3.977l-.994,4.772-1.082,5.2a3.651,3.651,0,0,1-4.263,2.744Z" transform="translate(-239.834 -283.749)" fill="#ededed" stroke="#27a2af" stroke-miterlimit="10" stroke-width="1"/>
      <path id="Path_6" data-name="Path 6" d="M293.317,379.7l-18.611.692a3.3,3.3,0,0,1-3.476-3.086l-.39-9.624a3.269,3.269,0,0,1,3.181-3.325l18.611-.692a3.309,3.309,0,0,1,3.484,3.078l.39,9.624a3.277,3.277,0,0,1-3.189,3.333Z" transform="translate(-243.225 -288.062)" fill="#ededed" stroke="#27a2af" stroke-miterlimit="10" stroke-width="1"/>
      <path id="Path_7" data-name="Path 7" d="M348.146,358.143c.883,1.5,10.093,6.363,10.093,6.363s8.868,3.683,10.292,4.478a2.068,2.068,0,0,1,1.3.6,1.169,1.169,0,0,1-.923.684c-.939.135-1.129,3.977-3.054,6.522s-4.136,5.854-4.136,5.854c-.119.215.215,1.026-.35,1.193s-.74-.692-.986-.8L340,372.166a.931.931,0,0,1-.382-1.281s7.111-11.135,7.158-12.384S347.271,356.648,348.146,358.143Z" transform="translate(-257.276 -286.752)" fill="#ededed" stroke="#27a2af" stroke-miterlimit="10" stroke-width="1"/>
      <path id="Path_8" data-name="Path 8" d="M345,375.241l-9.624-.469-8.988,1.153a3.3,3.3,0,0,1-3.476-3.078l-.39-9.624c-.072-1.766.97-3.977,3.221-3.333s6.037.517,10.045.74,10.881-1.161,10.944-1.185c1.591-.6,1.1.167,1.074,1.058l-.294,3.921a15.356,15.356,0,0,0,.111,3.364l.6,4.12A3.277,3.277,0,0,1,345,375.241Z" transform="translate(-253.8 -287.154)" fill="#ededed" stroke="#27a2af" stroke-miterlimit="10" stroke-width="1"/>
      <path id="Path_9" data-name="Path 9" d="M294.867,383.795c-1.5-1.726-13.951-1.742-13.951-1.742s-11.636.589-13.7.414c-.064,0-.533.374-.6.382a1.082,1.082,0,0,1-1.233-1.527l.406-.358c.652-1.09-.692-4.573,0-8.32s1.2-8.463,1.2-8.463a1.177,1.177,0,0,1,1.241-1.082l28.2,1.328a1.161,1.161,0,0,1,1.129,1.193s-2.458,15.8-1.177,16.814c.2.159,1.058.8.239,1.519a1.4,1.4,0,0,1-1.758-.159Z" transform="translate(-242.087 -287.946)" fill="#ededed" stroke="#27a2af" stroke-miterlimit="10" stroke-width="1"/>
      <path id="Path_10" data-name="Path 10" d="M275.877,374.567c-.851-1.511-9.982-6.53-9.982-6.53s-8.8-3.778-10.228-4.645a2.02,2.02,0,0,1-1.3-.62,1.193,1.193,0,0,1,.931-.668c.946-.119,1.209-3.977,3.181-6.474s4.231-5.79,4.231-5.79a1.01,1.01,0,0,1,1.344-.342L284.3,360.672a.923.923,0,0,1,.366,1.289s-7.3,10.992-7.4,12.264S276.736,376.118,275.877,374.567Z" transform="translate(-239.855 -285.136)" fill="#ededed" stroke="#27a2af" stroke-miterlimit="10" stroke-width="1"/>
      <path id="Path_11" data-name="Path 11" d="M337.337,373.291l4.907,5.568a6.442,6.442,0,0,1-.8,9.33l-.326.262c-2.9,2.386-4.112,6.291-9.735-.8l-4.907-5.568a6.45,6.45,0,0,1,.8-9.33l.326-.262C332.127,368.622,334.879,370.515,337.337,373.291Z" transform="translate(-254.277 -289.42)" fill="#ededed" stroke="#27a2af" stroke-miterlimit="10" stroke-width="1"/>
      <path id="Path_12" data-name="Path 12" d="M368.023,382.737a105.149,105.149,0,0,1-9.727,6.291c-3.022,1.471-9.33,4.16-9.33,4.16-2.72,2.45-3.977,2.108-4.025-1.05l-2.3-3.325a16.171,16.171,0,0,1-1.519-2.736l-2.163-4.979c-1.281-1.766-1.678-2.68.509-2.855.374,0,6.085-4.056,10.483-6.3a104.32,104.32,0,0,1,9.966-4.048c1.988-1.774,2.808-1.734,2.967,1.376l3.333,4.438L369.01,379C371.388,381,371.1,382.053,368.023,382.737Z" transform="translate(-256.951 -288.686)" fill="#ededed" stroke="#27a2af" stroke-miterlimit="10" stroke-width="1"/>
      <path id="Path_13" data-name="Path 13" d="M322.613,393.876l-21.546-8.248c-2.7.215-2.975-.962-.676-2.7l2.569-6.029a11.135,11.135,0,0,0,1.169-2.569l2.307-4.573c.064-1.726,1.336-2.092,2.275-.66l21.952,8.964c2.434-.31,2.887.66,1.1,2.7,0,0-1.71,4.613-2.132,5.886l-3.142,6.363C326.343,396.23,324.872,396.127,322.613,393.876Z" transform="translate(-248.955 -288.991)" fill="#ededed" stroke="#27a2af" stroke-miterlimit="10" stroke-width="1"/>
      <path id="Path_14" data-name="Path 14" d="M301.617,372.127c1.1-3.094-4.772,17.068-9.544,20.345-2.959,2.044.167-18.627.167-18.627Z" transform="translate(-247.31 -289.728)" fill="#fff" stroke="#27a2af" stroke-miterlimit="10" stroke-width="1.3"/>
      <path id="Path_15" data-name="Path 15" d="M281.907,370.736c1.718-2.466-8.463,13.927-13.108,15.557-2.9,1.018,5.21-16.583,5.21-16.583Z" transform="translate(-242.68 -289.299)" fill="#fff" stroke="#27a2af" stroke-miterlimit="10" stroke-width="1.3"/>
      <path id="Path_16" data-name="Path 16" d="M337,302.6s29.094-3.6,33.811,8.646-22.676,26.565-22.676,26.565" transform="translate(-256.764 -275.465)" fill="#fff" stroke="#27a2af" stroke-miterlimit="10" stroke-width="1.3"/>
      <path id="Path_17" data-name="Path 17" d="M264.068,321.75c2.656-3.356,8.137-3.667,10.061-6.872,3.619-6.013,11.93-9.934,20.942-9.791,4.708.079,4.844-5.464,13.084-6.053,3.006-.215,6.57-3.46,10.69-3.1a17.791,17.791,0,0,1,8.582,2.585c3.659,2.386,4.5,5.782,6.665,7.588,1.973,1.654,2.482,4.573,3.571,7.437.684,1.789,2.267,3.253,2.49,5.305.366,3.317-.668,7.89-.1,12.241a10.873,10.873,0,0,1-2.1,7.954,12.655,12.655,0,0,1-5.814,4.271,26.692,26.692,0,0,0-7.015,3.571c-2.084,1.551-4.088,4.2-6.681,5.21-5.122,2-3.6.35-7.27,1.5-4.565,1.432-5.186,4.2-8.009,4.048-4.231-.239-7.954,2.068-11.517,3.452-5.568,2.147-6.363-1.185-10.761-.915-3.69.215-4.613-2.45-6.363-2.871-3.85-.931-4.128-5.448-6.872-6.729a7.79,7.79,0,0,1-4.605-4.86c-1.782-3.635,1.249-4.6-2.227-9.815C259.415,333.832,257.745,329.712,264.068,321.75Z" transform="translate(-240.907 -274.196)" fill="#fff" stroke="#27a2af" stroke-miterlimit="10" stroke-width="1.3"/>
      <path id="Path_18" data-name="Path 18" d="M335.936,322.728c.223-.748,1.408-4.136,4.661-5.265a4.263,4.263,0,0,1,2.871.127,3.237,3.237,0,0,1,1.519,4.311c-1.2,2.434-4.685,3.691-7.62,2.943a6.927,6.927,0,0,1-5.154-5.886c-.318-3.372,2.386-5.647,3.42-6.49,3.937-3.269,7.612-2.482,7.612-2.482s-.8-3.516-1.185-6.777a15.5,15.5,0,0,0-10.57,4.526,13.966,13.966,0,0,0-4.534,7.214,12.145,12.145,0,0,0,.931,8.63c.286.533,3.333,6.021,9.449,6.435a11.6,11.6,0,0,0,7.453-2.227c.939-.676,3.754-2.7,4.231-6.236.087-.644.533-4.6-2.219-6.442a7.636,7.636,0,0,0-5.448-.867,7.954,7.954,0,0,0-4.064,2.513,7,7,0,0,0-1.352,5.973Z" transform="translate(-254.626 -275.69)" fill="#fff" stroke="#27a2af" stroke-miterlimit="10" stroke-width="0.91"/>
      <path id="Path_19" data-name="Path 19" d="M329.12,313.09a8.336,8.336,0,0,0,2.434,2.649,4.1,4.1,0,0,0,2.7.644" transform="translate(-255.151 -277.712)" fill="none" stroke="#27a2af" stroke-miterlimit="10" stroke-width="0.91"/>
      <path id="Path_20" data-name="Path 20" d="M330.2,311.43a7.748,7.748,0,0,0,2.386,2.736,4.454,4.454,0,0,0,3.1.565" transform="translate(-255.372 -277.373)" fill="none" stroke="#27a2af" stroke-miterlimit="10" stroke-width="0.91"/>
      <path id="Path_21" data-name="Path 21" d="M327.38,326.494a3.447,3.447,0,0,0,2.712.509,5.067,5.067,0,0,0,2.832-1.543" transform="translate(-254.795 -280.244)" fill="none" stroke="#27a2af" stroke-miterlimit="10" stroke-width="0.91"/>
      <path id="Path_22" data-name="Path 22" d="M326.8,324.766a3.181,3.181,0,0,0,2.768.8,5.138,5.138,0,0,0,2.831-1.432" transform="translate(-254.677 -279.971)" fill="none" stroke="#27a2af" stroke-miterlimit="10" stroke-width="0.91"/>
      <path id="Path_23" data-name="Path 23" d="M348.65,328.22a2.815,2.815,0,0,1,1.845,1.09c.891,1.058.954,1.591.915,1.79" transform="translate(-259.148 -280.808)" fill="none" stroke="#27a2af" stroke-miterlimit="10" stroke-width="0.91"/>
      <path id="Path_24" data-name="Path 24" d="M340.511,330.58a3.722,3.722,0,0,1-.127,2.951,3.34,3.34,0,0,1-2.124,1.9" transform="translate(-257.022 -281.291)" fill="none" stroke="#27a2af" stroke-miterlimit="10" stroke-width="0.91"/>
      <path id="Path_25" data-name="Path 25" d="M339.156,330.25a3.181,3.181,0,0,1,0,2.831,3.571,3.571,0,0,1-2.466,1.885" transform="translate(-256.701 -281.224)" fill="none" stroke="#27a2af" stroke-miterlimit="10" stroke-width="0.91"/>
      <path id="Path_26" data-name="Path 26" d="M347.75,329.05a2.768,2.768,0,0,1,1.925,1.042,2.386,2.386,0,0,1,.684,2.052" transform="translate(-258.964 -280.978)" fill="none" stroke="#27a2af" stroke-miterlimit="10" stroke-width="0.91"/>
      <path id="Path_27" data-name="Path 27" d="M348.3,320.985a3.118,3.118,0,0,1,1.813-1.5,2.823,2.823,0,0,1,2.251,0" transform="translate(-259.076 -278.974)" fill="none" stroke="#27a2af" stroke-miterlimit="10" stroke-width="0.91"/>
      <path id="Path_28" data-name="Path 28" d="M349.11,321.723A2.45,2.45,0,0,1,350.7,320.3a2.712,2.712,0,0,1,2.322.143" transform="translate(-259.242 -279.148)" fill="none" stroke="#27a2af" stroke-miterlimit="10" stroke-width="0.91"/>
      <path id="Path_29" data-name="Path 29" d="M343.368,300.968c-2.545,1.058-3.722,2.728-2.434,4.589.907,1.312,2.585,1.145,2.951,2.386s-.931,1.726-.589,2.8c.39,1.225,2.2,1.5,3.6.954,2.458-.962,3.563-.748,2.609-2.784C345.333,300.006,343.917,300.722,343.368,300.968Z" transform="translate(-257.461 -275.206)" fill="#fff"/>
      <ellipse id="Ellipse_2" data-name="Ellipse 2" cx="1.901" cy="1.821" rx="1.901" ry="1.821" transform="translate(98.474 31.632)" fill="#27a2af" stroke="#27a2af" stroke-miterlimit="10" stroke-width="0.43"/>
      <path id="Path_30" data-name="Path 30" d="M374.15,313.765c2.712-.215,2.386-.27,2.386-.27a13.781,13.781,0,0,0,.215-1.965" transform="translate(-264.366 -277.393)" fill="none" stroke="#27a2af" stroke-miterlimit="10" stroke-width="0.91"/>
      <line id="Line_1" data-name="Line 1" x1="1.519" y1="1.813" transform="translate(112.217 36.094)" fill="none" stroke="#27a2af" stroke-miterlimit="10" stroke-width="0.91"/>
      <text id="Give" transform="translate(54.435 92.172)" fill="#707070" font-size="7" font-family="Copperplate-Light, Copperplate" font-weight="300"><tspan x="0" y="0">G</tspan><tspan y="0" fill="#27a2af" font-size="5">ive</tspan></text>
      <text id="Shhheep-2" data-name="Shhheep" transform="translate(84.523 92.172)" fill="#707070" font-size="6" font-family="Copperplate-Light, Copperplate" font-weight="300"><tspan x="0" y="0">S</tspan><tspan y="0" fill="#27a2af" font-size="4">hhheep</tspan></text>
      <text id="Me" transform="translate(70.31 92.172)" fill="#707070" font-size="6" font-family="Copperplate-Light, Copperplate" font-weight="300"><tspan x="0" y="0">M</tspan><tspan y="0" fill="#27a2af" font-size="4">e</tspan></text>
    </g>
  </g>
</svg>
