<svg id="圖層_1" data-name="圖層 1" xmlns="http://www.w3.org/2000/svg" viewBox="0 0 153.1 153.1"><defs><style>.cls-1,.cls-8{fill:#707070;}.cls-1,.cls-2,.cls-3,.cls-4,.cls-5,.cls-7{stroke:#27a2af;stroke-miterlimit:10;}.cls-1{stroke-width:0.98px;}.cls-2,.cls-4,.cls-6{fill:#fff;}.cls-2{stroke-width:0.65px;}.cls-3{fill:#dcf9f8;}.cls-3,.cls-4,.cls-5{stroke-width:0.33px;}.cls-5{fill:none;}.cls-7,.cls-9{fill:#27a2af;}.cls-7{stroke-width:0.41px;}.cls-8{font-size:10.46px;font-family:Copperplate-Light, Copperplate;}.cls-9{font-size:6.54px;}</style></defs><title>GMS_logo_white-blue</title><circle class="cls-1" cx="76.55" cy="76.55" r="76.06"/><path class="cls-2" d="M508.53,340.64c-3.59-.87,19,5.94,25,3.57,3.77-1.47-17.49-11.15-17.49-11.15Z" transform="translate(-400.49 -268.18)"/><path class="cls-2" d="M505.47,348.91c-2.54-2,12.62,11.42,19.13,12.16,4.06.45-10.74-17-10.74-17Z" transform="translate(-400.49 -268.18)"/><path class="cls-3" d="M523.83,377.79l-10.13,4.86a12.07,12.07,0,0,0-1.63.94L503,389.84a4.26,4.26,0,0,1-5.81-1.56l-3.09-5.36-3.14-5.44a4.26,4.26,0,0,1,.86-5.31,4.15,4.15,0,0,1,1.08-.67l9-4.06a16.57,16.57,0,0,0,3-1.73l8.18-5.87a4.46,4.46,0,0,1,.82-.47,4.27,4.27,0,0,1,5.3,1.81l3,5.19,3.23,5.61A4.27,4.27,0,0,1,523.83,377.79Z" transform="translate(-400.49 -268.18)"/><path class="cls-3" d="M419.57,373.26c1.62-1.33,5.62-13,5.62-13s2.58-11,3.31-12.85a2.36,2.36,0,0,1,.46-1.63,1.4,1.4,0,0,1,1,.92c.35,1.06,5,.46,8.47,2.14s7.89,3.52,7.89,3.52a1.14,1.14,0,0,1,.71,1.46l-8.94,25.84a1.16,1.16,0,0,1-1.46.71s-14.81-5.84-16.36-5.66S417.94,374.59,419.57,373.26Z" transform="translate(-400.49 -268.18)"/><path class="cls-3" d="M444.34,366l-10.82-3a12.6,12.6,0,0,0-1.85-.36l-11.43-2.1c-2.3.92-3.16-.27-1.5-2.26l1.27-8,.76-7.14c-1-2.39-.49-3.37,2.34-1.85.38.21,1.67-.57,2.08-.45l9.44,2.89a18,18,0,0,0,3.4.68l10,1a3.75,3.75,0,0,1,.93.19,4.27,4.27,0,0,1,2.79,4.85l-1.17,5.88-1.26,6.35A4.27,4.27,0,0,1,444.34,366Z" transform="translate(-400.49 -268.18)"/><rect class="cls-3" x="433.5" y="361.49" width="29.64" height="19.61" rx="3.92" ry="3.92" transform="translate(-414.53 -250.55) rotate(-2.22)"/><path class="cls-3" d="M507.31,355.93c1,1.84,11.81,7.79,11.81,7.79s10.37,4.46,12.08,5.5a2.35,2.35,0,0,1,1.53.73,1.38,1.38,0,0,1-1.08.83c-1.1.17-1.33,4.86-3.58,8s-4.83,7.15-4.83,7.15c-.15.26.24,1.25-.42,1.46s-.86-.85-1.15-1l-23.89-13.28a1.16,1.16,0,0,1-.45-1.57s8.32-13.57,8.42-15.13S506.28,354.1,507.31,355.93Z" transform="translate(-400.49 -268.18)"/><path class="cls-3" d="M507.69,376.33l-11.26-.57-10.51,1.41a3.92,3.92,0,0,1-4.07-3.76l-.46-11.76c-.08-2.16,1.14-4.87,3.77-4.07s7.07.62,11.75.9,12.73-1.42,12.81-1.46c1.87-.73,1.29.21,1.26,1.3l-.35,4.79a19.46,19.46,0,0,0,.13,4.11l.7,5A3.92,3.92,0,0,1,507.69,376.33Z" transform="translate(-400.49 -268.18)"/><path class="cls-3" d="M462.74,385.82c-1.76-2.1-16.33-2.12-16.33-2.12s-13.61.72-16,.5c-.08,0-.63.46-.7.47a1.3,1.3,0,0,1-1.44-1.87l.48-.43c.76-1.34-.82-5.6-.05-10.18s1.41-10.34,1.41-10.34a1.4,1.4,0,0,1,1.46-1.32l33,1.62a1.39,1.39,0,0,1,1.32,1.46s-2.87,19.32-1.37,20.55c.23.19,1.24,1,.28,1.86A1.59,1.59,0,0,1,462.74,385.82Z" transform="translate(-400.49 -268.18)"/><path class="cls-3" d="M443.13,378c-1-1.85-11.68-8-11.68-8s-10.3-4.62-12-5.69a2.37,2.37,0,0,1-1.52-.76,1.4,1.4,0,0,1,1.1-.81c1.1-.15,1.4-4.84,3.7-7.92s4.95-7.07,4.95-7.07a1.17,1.17,0,0,1,1.58-.43L452.94,361a1.15,1.15,0,0,1,.42,1.57s-8.53,13.44-8.65,15S444.13,379.83,443.13,378Z" transform="translate(-400.49 -268.18)"/><path class="cls-3" d="M498.17,371.18l5.74,6.77a8.1,8.1,0,0,1-.94,11.4l-.38.32c-3.39,2.88-4.81,7.69-11.39-.94L485.45,382a8.12,8.12,0,0,1,.94-11.4l.38-.32C492.09,365.48,495.29,367.79,498.17,371.18Z" transform="translate(-400.49 -268.18)"/><path class="cls-3" d="M531,383.63s-7.85,5.89-11.39,7.69-10.91,5.09-10.91,5.09c-3.18,3-4.62,2.58-4.71-1.28l-2.69-4.07a19.79,19.79,0,0,1-1.78-3.34l-2.53-6.09c-1.5-2.15-2-3.27.6-3.49.43,0,7.12-5,12.26-7.7s11.43-4.72,11.67-4.94c2.32-2.17,3.28-2.13,3.46,1.68l3.9,5.43,3.27,6.46C534.92,381.5,534.55,382.77,531,383.63Z" transform="translate(-400.49 -268.18)"/><path class="cls-3" d="M487.17,396.87,462,386.79c-3.16.26-3.49-1.18-.79-3.31l3-7.37a13.48,13.48,0,0,0,1.37-3.14l2.7-5.59c.08-2.11,1.56-2.55,2.66-.81l25.69,11c2.84-.38,3.38.81,1.28,3.31,0,0-2,5.63-2.49,7.19l-3.68,7.78C491.53,399.75,489.81,399.62,487.17,396.87Z" transform="translate(-400.49 -268.18)"/><path class="cls-2" d="M464.52,369.39c1.29-3.79-5.62,20.86-11.18,24.87-3.46,2.49.19-22.78.19-22.78Z" transform="translate(-400.49 -268.18)"/><path class="cls-2" d="M446.88,368.21c2-3-9.9,17-15.34,19-3.39,1.24,6.1-20.28,6.1-20.28Z" transform="translate(-400.49 -268.18)"/><path class="cls-2" d="M494.85,301.84s34-4.41,39.57,10.57-26.53,32.47-26.53,32.47" transform="translate(-400.49 -268.18)"/><path class="cls-2" d="M428.08,326.79c3.11-4.1,9.52-4.48,11.77-8.39,4.24-7.35,13.95-12.15,24.51-12,5.51.09,5.66-6.69,15.3-7.41,3.53-.26,7.7-4.23,12.52-3.78s7.81,1.63,10,3.15c4.28,2.94,5.27,7.08,7.8,9.28,2.31,2,2.9,5.59,4.18,9.09.79,2.18,2.65,4,2.91,6.48.43,4.06-.78,9.65-.12,15a13.73,13.73,0,0,1-2.45,9.7,14.82,14.82,0,0,1-6.82,5.21,31.39,31.39,0,0,0-8.24,4.38c-2.44,1.9-4.78,5.14-7.82,6.38-6,2.43-4.21.42-8.51,1.83-5.33,1.75-6.06,5.14-9.36,5-5-.29-9.3,2.52-13.48,4.21-6.51,2.63-7.44-1.44-12.6-1.11-4.31.27-5.39-3-7.43-3.51-4.5-1.14-4.83-6.66-8-8.23-4.14-2-4.58-4.2-5.39-5.94-2.08-4.44,1.46-5.62-2.6-12C422.63,341.56,420.68,336.52,428.08,326.79Z" transform="translate(-400.49 -268.18)"/><path class="cls-4" d="M496.12,326.16c.26-.91,1.65-5.06,5.46-6.44a4.8,4.8,0,0,1,3.35.16,4,4,0,0,1,1.78,5.26c-1.4,3-5.48,4.52-8.91,3.6a8.39,8.39,0,0,1-6-7.19c-.37-4.12,2.83-6.9,4-7.93,4.61-4,8.91-3,8.91-3s-.91-4.29-1.39-8.27c-6.22,0-10.21,3.54-12.37,5.52a17.08,17.08,0,0,0-5.3,8.82,15.39,15.39,0,0,0,1.09,10.55c.33.65,3.89,7.36,11.05,7.87a13.12,13.12,0,0,0,8.72-2.73c1.1-.83,4.39-3.3,4.95-7.61.1-.79.63-5.62-2.59-7.88a8.66,8.66,0,0,0-6.38-1.07,9.34,9.34,0,0,0-4.76,3.08A8.88,8.88,0,0,0,496.12,326.16Z" transform="translate(-400.49 -268.18)"/><path class="cls-5" d="M487.53,311.91a10.33,10.33,0,0,0,2.85,3.24,4.67,4.67,0,0,0,3.16.78" transform="translate(-400.49 -268.18)"/><path class="cls-5" d="M488.53,310.29a9.52,9.52,0,0,0,2.82,3.35,5,5,0,0,0,3.63.69" transform="translate(-400.49 -268.18)"/><path class="cls-5" d="M485.91,325.19c.16.17,1,.87,3.17.63a5.89,5.89,0,0,0,3.32-1.89" transform="translate(-400.49 -268.18)"/><path class="cls-5" d="M485.37,323.42a3.61,3.61,0,0,0,3.24,1,5.94,5.94,0,0,0,3.31-1.75" transform="translate(-400.49 -268.18)"/><path class="cls-5" d="M505.71,326.61a3.27,3.27,0,0,1,2.16,1.34c1,1.29,1.11,1.95,1.07,2.19" transform="translate(-400.49 -268.18)"/><path class="cls-5" d="M498.67,328.91a4.7,4.7,0,0,1-.15,3.61,3.93,3.93,0,0,1-2.48,2.32" transform="translate(-400.49 -268.18)"/><path class="cls-5" d="M497.46,328.59a4,4,0,0,1,0,3.46,4.18,4.18,0,0,1-2.88,2.31" transform="translate(-400.49 -268.18)"/><path class="cls-5" d="M504.87,327.43a3.19,3.19,0,0,1,2.26,1.27,2.94,2.94,0,0,1,.79,2.51" transform="translate(-400.49 -268.18)"/><path class="cls-5" d="M505.38,320a3.81,3.81,0,0,1,2.12-1.83,3.18,3.18,0,0,1,2.64,0" transform="translate(-400.49 -268.18)"/><path class="cls-5" d="M506.13,320.71A3,3,0,0,1,508,319a3,3,0,0,1,2.71.18" transform="translate(-400.49 -268.18)"/><path class="cls-6" d="M501.51,300.13c-3,1.29-4.37,3.33-2.86,5.6,1.07,1.61,3,1.41,3.46,2.93s-1.09,2.11-.69,3.42c.45,1.5,2.57,1.84,4.22,1.17,2.87-1.18,4.16-.92,3-3.41C503.8,299,502.15,299.85,501.51,300.13Z" transform="translate(-400.49 -268.18)"/><circle class="cls-7" cx="117.95" cy="41.37" r="2.22"/><path class="cls-5" d="M530.21,313c3.18-.27,2.83-.33,2.83-.33a16.75,16.75,0,0,0,.25-2.4" transform="translate(-400.49 -268.18)"/><line class="cls-5" x1="134.35" y1="46.74" x2="132.58" y2="44.51"/><text class="cls-8" transform="translate(64.19 114.81)">G<tspan class="cls-9" x="7.55" y="0">ive</tspan></text><text class="cls-8" transform="translate(99.39 114.81)">S<tspan class="cls-9" x="6.98" y="0">hhheep</tspan></text><text class="cls-8" transform="translate(82.77 114.81)">M<tspan class="cls-9" x="8.71" y="0">e</tspan></text></svg>