<svg id="圖層_1" data-name="圖層 1" xmlns="http://www.w3.org/2000/svg" viewBox="0 0 153.1 153.1"><defs><style>.cls-1,.cls-8{fill:#707070;}.cls-1,.cls-2,.cls-3,.cls-4,.cls-5,.cls-7{stroke:#27a2af;stroke-miterlimit:10;}.cls-1{stroke-width:0.98px;}.cls-2,.cls-4,.cls-6{fill:#fff;}.cls-2{stroke-width:0.65px;}.cls-3{fill:#ededed;}.cls-3,.cls-4,.cls-5{stroke-width:0.33px;}.cls-5{fill:none;}.cls-7,.cls-9{fill:#27a2af;}.cls-7{stroke-width:0.41px;}.cls-8{font-size:10.46px;font-family:Copperplate-Light, Copperplate;}.cls-9{font-size:6.54px;}</style></defs><title>GMS_logo_white-blue-gray</title><circle class="cls-1" cx="76.55" cy="76.55" r="76.06"/><path class="cls-2" d="M343.67,340.62c-3.59-.87,19,5.94,25,3.57C372.46,342.72,351.2,333,351.2,333Z" transform="translate(-235.63 -268.16)"/><path class="cls-2" d="M340.6,348.89c-2.54-2,12.63,11.42,19.14,12.16,4.05.45-10.74-17-10.74-17Z" transform="translate(-235.63 -268.16)"/><path class="cls-3" d="M359,377.77l-10.12,4.86a11.48,11.48,0,0,0-1.63.94l-9.12,6.25a4.26,4.26,0,0,1-5.81-1.56l-3.1-5.36L326,377.46a4.29,4.29,0,0,1,.86-5.31,4.21,4.21,0,0,1,1.09-.67l9-4.06a16.92,16.92,0,0,0,3-1.73l8.17-5.87a4.54,4.54,0,0,1,.83-.47,4.28,4.28,0,0,1,5.3,1.81l3,5.19,3.24,5.61A4.26,4.26,0,0,1,359,377.77Z" transform="translate(-235.63 -268.16)"/><path class="cls-3" d="M254.7,373.24c1.63-1.33,5.63-13,5.63-13s2.58-11,3.31-12.85a2.36,2.36,0,0,1,.46-1.63,1.38,1.38,0,0,1,1,.92c.36,1.06,5,.46,8.48,2.14s7.88,3.52,7.88,3.52a1.16,1.16,0,0,1,.72,1.46l-8.94,25.84a1.17,1.17,0,0,1-1.46.71s-14.82-5.84-16.36-5.66S253.08,374.57,254.7,373.24Z" transform="translate(-235.63 -268.16)"/><path class="cls-3" d="M279.47,366l-10.81-3a13.14,13.14,0,0,0-1.85-.36l-11.44-2.1c-2.29.92-3.15-.27-1.49-2.26l1.26-8,.77-7.14c-1-2.39-.49-3.37,2.34-1.85.38.21,1.67-.57,2.08-.45l9.44,2.89a17.87,17.87,0,0,0,3.39.68l10,1a3.74,3.74,0,0,1,.94.19,4.29,4.29,0,0,1,2.79,4.85l-1.17,5.88-1.26,6.35A4.28,4.28,0,0,1,279.47,366Z" transform="translate(-235.63 -268.16)"/><rect class="cls-3" x="268.64" y="361.47" width="29.64" height="19.61" rx="3.92" ry="3.92" transform="translate(-249.79 -256.91) rotate(-2.22)"/><path class="cls-3" d="M342.45,355.91c1,1.84,11.81,7.79,11.81,7.79s10.37,4.46,12.08,5.5a2.38,2.38,0,0,1,1.53.73,1.4,1.4,0,0,1-1.08.83c-1.11.17-1.33,4.86-3.58,8s-4.84,7.15-4.84,7.15c-.14.26.25,1.25-.41,1.46s-.86-.85-1.15-1l-23.89-13.28a1.15,1.15,0,0,1-.45-1.57s8.32-13.57,8.41-15.13S341.42,354.08,342.45,355.91Z" transform="translate(-235.63 -268.16)"/><path class="cls-3" d="M342.83,376.31l-11.27-.57-10.51,1.41a3.93,3.93,0,0,1-4.07-3.76l-.45-11.76c-.09-2.16,1.14-4.87,3.76-4.08s7.07.63,11.76.9S344.78,357,344.86,357c1.87-.73,1.29.21,1.25,1.3l-.34,4.79a19.46,19.46,0,0,0,.13,4.11l.7,5A3.93,3.93,0,0,1,342.83,376.31Z" transform="translate(-235.63 -268.16)"/><path class="cls-3" d="M297.87,385.8c-1.75-2.1-16.32-2.12-16.32-2.12s-13.62.72-16,.5c-.07,0-.62.46-.69.47a1.31,1.31,0,0,1-1.45-1.87l.48-.43c.77-1.34-.81-5.6,0-10.18s1.41-10.34,1.41-10.34a1.4,1.4,0,0,1,1.46-1.32l33,1.62a1.4,1.4,0,0,1,1.32,1.46s-2.87,19.32-1.38,20.55c.24.19,1.25,1,.28,1.86A1.59,1.59,0,0,1,297.87,385.8Z" transform="translate(-235.63 -268.16)"/><path class="cls-3" d="M278.27,378c-1-1.85-11.68-8-11.68-8s-10.3-4.62-12-5.69a2.37,2.37,0,0,1-1.52-.76,1.37,1.37,0,0,1,1.09-.81c1.11-.15,1.41-4.84,3.71-7.92s4.95-7.08,4.95-7.08a1.17,1.17,0,0,1,1.57-.42L288.08,361a1.15,1.15,0,0,1,.42,1.57s-8.54,13.44-8.66,15S279.27,379.81,278.27,378Z" transform="translate(-235.63 -268.16)"/><path class="cls-3" d="M333.31,371.16l5.74,6.77a8.11,8.11,0,0,1-.94,11.4l-.38.32c-3.39,2.88-4.82,7.69-11.4-.94l-5.74-6.77a8.11,8.11,0,0,1,.94-11.4l.38-.32C327.22,365.46,330.43,367.77,333.31,371.16Z" transform="translate(-235.63 -268.16)"/><path class="cls-3" d="M366.08,383.61s-7.84,5.89-11.38,7.69-10.91,5.09-10.91,5.09c-3.18,3-4.62,2.58-4.71-1.28L336.39,391a19.79,19.79,0,0,1-1.78-3.34l-2.53-6.09c-1.5-2.15-2-3.27.6-3.49.43,0,7.11-5,12.26-7.7s11.42-4.72,11.66-4.94c2.33-2.17,3.29-2.13,3.47,1.68l3.9,5.43,3.27,6.46C370.06,381.48,369.69,382.75,366.08,383.61Z" transform="translate(-235.63 -268.16)"/><path class="cls-3" d="M322.31,396.85l-25.22-10.08c-3.15.26-3.48-1.18-.78-3.31l3-7.37a14.37,14.37,0,0,0,1.37-3.14l2.7-5.59c.07-2.11,1.56-2.55,2.65-.81l25.69,11c2.85-.38,3.39.81,1.28,3.31,0,0-2,5.63-2.49,7.19l-3.67,7.78C326.67,399.73,325,399.6,322.31,396.85Z" transform="translate(-235.63 -268.16)"/><path class="cls-2" d="M299.66,369.37c1.29-3.79-5.63,20.86-11.18,24.87-3.46,2.49.19-22.78.19-22.78Z" transform="translate(-235.63 -268.16)"/><path class="cls-2" d="M282,368.19c2-3-9.89,17-15.33,19-3.39,1.25,6.1-20.27,6.1-20.27Z" transform="translate(-235.63 -268.16)"/><path class="cls-2" d="M330,301.82s34.05-4.41,39.57,10.57S343,344.86,343,344.86" transform="translate(-235.63 -268.16)"/><path class="cls-2" d="M263.21,326.77c3.12-4.1,9.53-4.48,11.78-8.39,4.23-7.35,13.94-12.15,24.5-12,5.52.09,5.67-6.69,15.31-7.41,3.52-.26,7.69-4.23,12.51-3.78s7.82,1.63,10.05,3.15c4.27,2.94,5.26,7.08,7.79,9.28,2.32,2,2.91,5.59,4.18,9.09.8,2.18,2.66,4,2.92,6.48.43,4.06-.78,9.65-.13,15a13.68,13.68,0,0,1-2.45,9.7,14.8,14.8,0,0,1-6.81,5.21,31.22,31.22,0,0,0-8.24,4.38c-2.44,1.9-4.78,5.14-7.82,6.38-6,2.43-4.21.42-8.51,1.83-5.33,1.75-6.06,5.14-9.37,4.94-4.95-.28-9.29,2.53-13.48,4.22-6.5,2.63-7.43-1.44-12.59-1.11-4.31.27-5.39-3-7.43-3.51-4.51-1.14-4.83-6.66-8-8.23-4.14-2-4.58-4.2-5.4-5.94-2.07-4.44,1.47-5.62-2.6-12C257.77,341.54,255.82,336.5,263.21,326.77Z" transform="translate(-235.63 -268.16)"/><path class="cls-4" d="M331.26,326.14c.26-.91,1.65-5.06,5.45-6.44a4.83,4.83,0,0,1,3.36.16,4,4,0,0,1,1.78,5.26c-1.4,3-5.48,4.52-8.91,3.6a8.38,8.38,0,0,1-6-7.19c-.37-4.12,2.82-6.9,4-7.93,4.6-4,8.9-3,8.9-3s-.9-4.29-1.38-8.27c-6.23,0-10.22,3.54-12.37,5.52a17.14,17.14,0,0,0-5.31,8.82,15.46,15.46,0,0,0,1.09,10.55c.34.65,3.9,7.36,11.05,7.87a13.16,13.16,0,0,0,8.73-2.73c1.1-.83,4.39-3.3,4.95-7.62.1-.78.62-5.61-2.59-7.87a8.66,8.66,0,0,0-6.38-1.07,9.34,9.34,0,0,0-4.76,3.08A8.84,8.84,0,0,0,331.26,326.14Z" transform="translate(-235.63 -268.16)"/><path class="cls-5" d="M322.67,311.89a10.16,10.16,0,0,0,2.85,3.24,4.67,4.67,0,0,0,3.16.78" transform="translate(-235.63 -268.16)"/><path class="cls-5" d="M323.67,310.27a9.4,9.4,0,0,0,2.82,3.35,5,5,0,0,0,3.63.69" transform="translate(-235.63 -268.16)"/><path class="cls-5" d="M321.05,325.17c.16.17,1.05.87,3.17.63a5.81,5.81,0,0,0,3.31-1.89" transform="translate(-235.63 -268.16)"/><path class="cls-5" d="M320.51,323.4a3.61,3.61,0,0,0,3.24,1,6,6,0,0,0,3.31-1.75" transform="translate(-235.63 -268.16)"/><path class="cls-5" d="M340.84,326.59a3.26,3.26,0,0,1,2.17,1.34c1,1.29,1.11,1.95,1.07,2.19" transform="translate(-235.63 -268.16)"/><path class="cls-5" d="M333.81,328.89a4.7,4.7,0,0,1-.15,3.61,3.93,3.93,0,0,1-2.48,2.32" transform="translate(-235.63 -268.16)"/><path class="cls-5" d="M332.6,328.57a4,4,0,0,1,0,3.46,4.2,4.2,0,0,1-2.88,2.31" transform="translate(-235.63 -268.16)"/><path class="cls-5" d="M340,327.41a3.16,3.16,0,0,1,2.26,1.27,2.93,2.93,0,0,1,.8,2.51" transform="translate(-235.63 -268.16)"/><path class="cls-5" d="M340.52,320a3.77,3.77,0,0,1,2.12-1.83,3.19,3.19,0,0,1,2.64,0" transform="translate(-235.63 -268.16)"/><path class="cls-5" d="M341.27,320.69a2.93,2.93,0,0,1,1.87-1.75,3.06,3.06,0,0,1,2.72.18" transform="translate(-235.63 -268.16)"/><path class="cls-6" d="M336.64,300.11c-3,1.29-4.36,3.33-2.85,5.6,1.06,1.61,3,1.4,3.46,2.93s-1.1,2.11-.69,3.42c.45,1.5,2.57,1.84,4.21,1.17,2.88-1.18,4.17-.92,3.05-3.41C338.94,299,337.28,299.83,336.64,300.11Z" transform="translate(-235.63 -268.16)"/><circle class="cls-7" cx="117.95" cy="41.37" r="2.22"/><path class="cls-5" d="M365.35,313c3.17-.27,2.82-.33,2.82-.33a16.74,16.74,0,0,0,.26-2.4" transform="translate(-235.63 -268.16)"/><line class="cls-5" x1="134.35" y1="46.74" x2="132.58" y2="44.51"/><text class="cls-8" transform="translate(64.19 114.81)">G<tspan class="cls-9" x="7.55" y="0">ive</tspan></text><text class="cls-8" transform="translate(99.39 114.81)">S<tspan class="cls-9" x="6.98" y="0">hhheep</tspan></text><text class="cls-8" transform="translate(82.77 114.81)">M<tspan class="cls-9" x="8.71" y="0">e</tspan></text></svg>