<svg enable-background="new 0 0 48 48" height="48" viewBox="0 0 48 48" width="48" xmlns="http://www.w3.org/2000/svg"><g fill="#241f20"><path fill="#004a52" d="m39.979 8.759h-4.229l-2.875-3.062-2 42.313 14.125-3.125z"/><path fill="#004a52" d="m30.229 6.192c-.159-.889-.485-1.646-.893-2.295-.012-.021-.019-.038-.03-.061-.93-1.782-2.419-2.309-2.864-2.432-.009-.002-.017-.005-.024-.008-.069-.018-.116-.029-.116-.029l.01.012c-.38-.087-.776-.113-1.185-.066-.595-.697-1.414-1.201-2.542-1.304-4.542-.417-8.125 6.167-8.125 6.167s-1.595 3.577-1.902 5.539l-5.744 1.795-3.814 29.5 26.812 5 2-42.313zm-5.562-1.849c.292 2.708.226 3.516.226 3.516l-4.828 1.509s.435-3.274 2.727-5.066c.613-.479 1.168-.776 1.667-.952.094.288.167.614.208.993zm-10.137 6.754s.512-3.004 1.887-5.004 2.875-3.75 5.333-4.5c.391-.103 1.034-.093 1.622.267-.924.458-1.832 1.163-2.622 2.024-2.075 2.261-2.498 6.05-2.498 6.05zm10.191 7.841-1.408 3.634s-3.312-1.438-5.188-.438-1.062 3.188 0 3.813 3.5 2.25 4.25 3.438c.53.84.864 2.254.976 3.377h.001s.897 4.873-4.04 7.561-9.688-1.812-9.938-2.5c.75-2.062 1.375-4.062 1.375-4.062s2.625 2.062 4.312 2 2.555-1.476 1.94-2.562c-.045-.08-.071-.166-.087-.254-.168-.394-.676-1.235-2.229-2.434-2.188-1.688-3.031-4.334-2.737-6.066.003-.017.011-.036.014-.052.193-2.832 1.784-5.19 4.66-6.882 3.188-1.875 8.812-.312 8.812-.312zm1.947-11.633s.142-2.156-.528-4.126c.203.035.373.094.535.154.295.133 1.003.533 1.412 1.446.034.077.066.141.097.196.383.801.686 1.642.686 1.642z"/></g></svg>