<svg id="圖層_1" data-name="圖層 1" xmlns="http://www.w3.org/2000/svg" viewBox="0 0 567.78 66.82"><defs><style>.cls-1{fill:#707070;}</style></defs><title>textLogo</title><path class="cls-1" d="M428.91,159.05a24.27,24.27,0,0,1-9,1.77,24,24,0,0,1-10.3-2.13,23.18,23.18,0,0,1-7.7-5.72,25,25,0,0,1-4.82-8.28,28.78,28.78,0,0,1-1.66-9.72A36.18,36.18,0,0,1,397,124.28a26,26,0,0,1,4.61-8.89,22.19,22.19,0,0,1,7.63-6.09A23.81,23.81,0,0,1,419.91,107a30.87,30.87,0,0,1,7.88,1,19.65,19.65,0,0,1,6.63,3.06,18.12,18.12,0,0,1,4.89,5.29,20.77,20.77,0,0,1,2.7,7.74h-6.84A13.42,13.42,0,0,0,433.3,119a12.1,12.1,0,0,0-3.38-3.49,15.2,15.2,0,0,0-4.57-2,20.84,20.84,0,0,0-5.44-.69,15.67,15.67,0,0,0-13.5,6.81,21.42,21.42,0,0,0-3.13,7,31.79,31.79,0,0,0-1,8,25.85,25.85,0,0,0,1.15,7.74,20.18,20.18,0,0,0,3.39,6.55,16.51,16.51,0,0,0,5.5,4.54,16.34,16.34,0,0,0,7.6,1.69,18.25,18.25,0,0,0,7.13-1.3,14.64,14.64,0,0,0,8.42-8.89,17.59,17.59,0,0,0,.94-6.59H420v-5.76h22.54v27.08H438.2l-1.8-6.41A17,17,0,0,1,428.91,159.05Z" transform="translate(-395.43 -107.03)"/><path class="cls-1" d="M452,115.75v-7.49h6.12v7.49Zm6.12,6.69v37.23H452V122.44Z" transform="translate(-395.43 -107.03)"/><path class="cls-1" d="M477.8,159.67,464,122.44h6.84l10.44,31h.15l10.15-31H498l-13.61,37.23Z" transform="translate(-395.43 -107.03)"/><path class="cls-1" d="M529.92,157.29a16.9,16.9,0,0,1-10.51,3.17,19.09,19.09,0,0,1-7.74-1.44,15.41,15.41,0,0,1-5.51-4,17,17,0,0,1-3.34-6.2,29.24,29.24,0,0,1-1.26-7.84,22.48,22.48,0,0,1,1.29-7.78,18.74,18.74,0,0,1,3.64-6.12,16.51,16.51,0,0,1,5.54-4,17,17,0,0,1,7-1.44,15.29,15.29,0,0,1,8.25,2,16.36,16.36,0,0,1,5.25,5.22,20.79,20.79,0,0,1,2.74,6.91,29.65,29.65,0,0,1,.61,7.13H508a14.74,14.74,0,0,0,.57,4.64,10.39,10.39,0,0,0,2.09,3.89,10.23,10.23,0,0,0,3.67,2.7,12.56,12.56,0,0,0,5.26,1,10.6,10.6,0,0,0,6.37-1.8,8.69,8.69,0,0,0,3.28-5.47h6Q534.11,154.12,529.92,157.29Zm-1.47-23.9a10.45,10.45,0,0,0-2.23-3.35,10.59,10.59,0,0,0-3.32-2.23,10.47,10.47,0,0,0-4.21-.83,10.68,10.68,0,0,0-4.28.83,9.76,9.76,0,0,0-3.28,2.26,11.08,11.08,0,0,0-2.16,3.35,12.53,12.53,0,0,0-.93,4.07h21.38A12.61,12.61,0,0,0,528.45,133.39Z" transform="translate(-395.43 -107.03)"/><path class="cls-1" d="M572.76,108.26l16.2,43.2,16.27-43.2h9.36v51.41h-6.48V116.9H608l-16.06,42.77h-5.83L570,116.9h-.15v42.77H563.4V108.26Z" transform="translate(-395.43 -107.03)"/><path class="cls-1" d="M651.31,157.29a16.9,16.9,0,0,1-10.51,3.17,19.13,19.13,0,0,1-7.74-1.44,15.41,15.41,0,0,1-5.51-4,17,17,0,0,1-3.34-6.2A29.24,29.24,0,0,1,623,141a22.48,22.48,0,0,1,1.29-7.78,18.74,18.74,0,0,1,3.64-6.12,16.51,16.51,0,0,1,5.54-4,17,17,0,0,1,7-1.44,15.29,15.29,0,0,1,8.25,2,16.36,16.36,0,0,1,5.25,5.22,20.79,20.79,0,0,1,2.74,6.91,29.65,29.65,0,0,1,.61,7.13H629.43a14.74,14.74,0,0,0,.57,4.64,10.39,10.39,0,0,0,2.09,3.89,10.23,10.23,0,0,0,3.67,2.7,12.56,12.56,0,0,0,5.26,1,10.6,10.6,0,0,0,6.37-1.8,8.69,8.69,0,0,0,3.28-5.47h6Q655.49,154.12,651.31,157.29Zm-1.47-23.9a10.45,10.45,0,0,0-2.23-3.35,10.59,10.59,0,0,0-3.32-2.23,10.47,10.47,0,0,0-4.21-.83,10.68,10.68,0,0,0-4.28.83,9.76,9.76,0,0,0-3.28,2.26,11.08,11.08,0,0,0-2.16,3.35,12.53,12.53,0,0,0-.93,4.07h21.38A12.61,12.61,0,0,0,649.84,133.39Z" transform="translate(-395.43 -107.03)"/><path class="cls-1" d="M710.39,115.28a14.5,14.5,0,0,0-8.75-2.49,20.78,20.78,0,0,0-4.25.44,11.18,11.18,0,0,0-3.71,1.44,7.54,7.54,0,0,0-2.59,2.7,8.33,8.33,0,0,0-1,4.21,5.38,5.38,0,0,0,1.4,3.85,10.34,10.34,0,0,0,3.75,2.41,31,31,0,0,0,5.29,1.55q3,.62,6,1.33c2,.48,4,1.05,6,1.69a20,20,0,0,1,5.3,2.63,12.61,12.61,0,0,1,3.74,4.18,14.67,14.67,0,0,1-.43,13.35,15.21,15.21,0,0,1-4.72,4.76A20.6,20.6,0,0,1,710,160a31.39,31.39,0,0,1-7.09.83,30.21,30.21,0,0,1-8.18-1.08,20.07,20.07,0,0,1-6.76-3.28,15.44,15.44,0,0,1-4.61-5.61,18.05,18.05,0,0,1-1.69-8.1h6.48a11.61,11.61,0,0,0,1.26,5.58,11.44,11.44,0,0,0,3.31,3.85,13.91,13.91,0,0,0,4.79,2.23,21.91,21.91,0,0,0,5.61.72,25.39,25.39,0,0,0,4.65-.43,13.64,13.64,0,0,0,4.21-1.48,8.31,8.31,0,0,0,3-2.84,8.4,8.4,0,0,0,1.15-4.61,6.45,6.45,0,0,0-1.4-4.32,10.43,10.43,0,0,0-3.74-2.7,27.73,27.73,0,0,0-5.3-1.69l-6-1.33q-3.06-.69-6-1.59a21.85,21.85,0,0,1-5.29-2.37,11.51,11.51,0,0,1-3.75-3.82,11.29,11.29,0,0,1-1.4-5.87,13.69,13.69,0,0,1,1.58-6.73,13.85,13.85,0,0,1,4.22-4.68,19.19,19.19,0,0,1,6-2.74,26.4,26.4,0,0,1,6.88-.9,27.57,27.57,0,0,1,7.34.94,16.56,16.56,0,0,1,5.94,3,14.19,14.19,0,0,1,4,5.08,17.94,17.94,0,0,1,1.62,7.31h-6.48Q713.81,117.76,710.39,115.28Z" transform="translate(-395.43 -107.03)"/><path class="cls-1" d="M736.42,108.26v19.65h.14a8.05,8.05,0,0,1,2-2.91,11.59,11.59,0,0,1,2.91-2,15.3,15.3,0,0,1,3.39-1.11,17,17,0,0,1,3.42-.36,16.25,16.25,0,0,1,6.12,1,10.16,10.16,0,0,1,4,2.8,10.55,10.55,0,0,1,2.12,4.29,22.9,22.9,0,0,1,.61,5.51v24.48H755v-25.2a7.43,7.43,0,0,0-2-5.48,7.53,7.53,0,0,0-5.55-2,12.6,12.6,0,0,0-4.86.86,9.2,9.2,0,0,0-3.42,2.45,10.65,10.65,0,0,0-2,3.71,15,15,0,0,0-.68,4.64v21H730.3V108.26Z" transform="translate(-395.43 -107.03)"/><path class="cls-1" d="M776.45,108.26v19.65h.14a8.05,8.05,0,0,1,2-2.91,11.59,11.59,0,0,1,2.91-2,15.3,15.3,0,0,1,3.39-1.11,17,17,0,0,1,3.42-.36,16.18,16.18,0,0,1,6.12,1,10.16,10.16,0,0,1,4,2.8,10.42,10.42,0,0,1,2.12,4.29,22.9,22.9,0,0,1,.61,5.51v24.48H795v-25.2a7.43,7.43,0,0,0-2-5.48,7.52,7.52,0,0,0-5.55-2,12.6,12.6,0,0,0-4.86.86,9.36,9.36,0,0,0-3.42,2.45,10.65,10.65,0,0,0-2,3.71,15.26,15.26,0,0,0-.68,4.64v21h-6.12V108.26Z" transform="translate(-395.43 -107.03)"/><path class="cls-1" d="M816.48,108.26v19.65h.14a8.18,8.18,0,0,1,2-2.91,11.64,11.64,0,0,1,2.92-2,15.22,15.22,0,0,1,3.38-1.11,17.15,17.15,0,0,1,3.42-.36,16.18,16.18,0,0,1,6.12,1,10.16,10.16,0,0,1,4,2.8,10.3,10.3,0,0,1,2.12,4.29,22.88,22.88,0,0,1,.62,5.51v24.48h-6.12v-25.2A7,7,0,0,0,827.5,127a12.53,12.53,0,0,0-4.86.86,9.2,9.2,0,0,0-3.42,2.45,10.51,10.51,0,0,0-2.06,3.71,15.26,15.26,0,0,0-.68,4.64v21h-6.12V108.26Z" transform="translate(-395.43 -107.03)"/><path class="cls-1" d="M876.74,157.29a16.88,16.88,0,0,1-10.51,3.17,19.16,19.16,0,0,1-7.74-1.44,15.41,15.41,0,0,1-5.51-4,17.14,17.14,0,0,1-3.34-6.2,29.24,29.24,0,0,1-1.26-7.84,22.48,22.48,0,0,1,1.29-7.78,18.74,18.74,0,0,1,3.64-6.12,16.51,16.51,0,0,1,5.54-4,17,17,0,0,1,7-1.44,15.29,15.29,0,0,1,8.25,2,16.36,16.36,0,0,1,5.25,5.22,20.79,20.79,0,0,1,2.74,6.91,29.65,29.65,0,0,1,.61,7.13H854.86a14.74,14.74,0,0,0,.57,4.64,10.39,10.39,0,0,0,2.09,3.89,10.23,10.23,0,0,0,3.67,2.7,12.56,12.56,0,0,0,5.26,1,10.6,10.6,0,0,0,6.37-1.8,8.69,8.69,0,0,0,3.28-5.47h6Q880.93,154.12,876.74,157.29Zm-1.47-23.9a10.44,10.44,0,0,0-9.76-6.41,10.68,10.68,0,0,0-4.28.83,9.86,9.86,0,0,0-3.28,2.26,11.08,11.08,0,0,0-2.16,3.35,12.53,12.53,0,0,0-.93,4.07h21.38A12.61,12.61,0,0,0,875.27,133.39Z" transform="translate(-395.43 -107.03)"/><path class="cls-1" d="M915.41,157.29a16.92,16.92,0,0,1-10.51,3.17,19.09,19.09,0,0,1-7.74-1.44,15.23,15.23,0,0,1-5.51-4,17,17,0,0,1-3.35-6.2A29.24,29.24,0,0,1,887,141a22.24,22.24,0,0,1,1.3-7.78,18.54,18.54,0,0,1,3.63-6.12,16.45,16.45,0,0,1,5.55-4,16.89,16.89,0,0,1,7-1.44,15.26,15.26,0,0,1,8.24,2,16.5,16.5,0,0,1,5.26,5.22,20.77,20.77,0,0,1,2.73,6.91,29.15,29.15,0,0,1,.61,7.13H893.52a14.46,14.46,0,0,0,.58,4.64,10.37,10.37,0,0,0,2.08,3.89,10.27,10.27,0,0,0,3.68,2.7,12.51,12.51,0,0,0,5.25,1,10.58,10.58,0,0,0,6.37-1.8,8.69,8.69,0,0,0,3.28-5.47h6Q919.58,154.12,915.41,157.29Zm-1.48-23.9A10.29,10.29,0,0,0,911.7,130a10.47,10.47,0,0,0-7.52-3.06,10.69,10.69,0,0,0-4.29.83,9.82,9.82,0,0,0-3.27,2.26,10.71,10.71,0,0,0-2.16,3.35,12.54,12.54,0,0,0-.94,4.07H914.9A12.36,12.36,0,0,0,913.93,133.39Z" transform="translate(-395.43 -107.03)"/><path class="cls-1" d="M934.05,122.44v5h.15A9.2,9.2,0,0,1,939,123a17.86,17.86,0,0,1,7.13-1.4,16.83,16.83,0,0,1,7.52,1.58,15.37,15.37,0,0,1,5.33,4.29,18.82,18.82,0,0,1,3.2,6.22,25.5,25.5,0,0,1,1.08,7.49,26.12,26.12,0,0,1-1,7.49,17.74,17.74,0,0,1-3.17,6.16,14.9,14.9,0,0,1-5.33,4.14,17.38,17.38,0,0,1-7.45,1.51,18.67,18.67,0,0,1-3.06-.29,16.44,16.44,0,0,1-3.35-.94,13,13,0,0,1-3.13-1.76,9.87,9.87,0,0,1-2.48-2.77h-.15v19.15h-6.12V122.44Zm22,13.21a13.66,13.66,0,0,0-2.09-4.42,10.12,10.12,0,0,0-3.6-3.1,10.9,10.9,0,0,0-5.15-1.15,10.08,10.08,0,0,0-8.78,4.43,13.48,13.48,0,0,0-2,4.5,21.45,21.45,0,0,0-.61,5.11,21.06,21.06,0,0,0,.65,5.29,13.05,13.05,0,0,0,2,4.5,10.41,10.41,0,0,0,3.63,3.13,11.39,11.39,0,0,0,5.4,1.19,10.55,10.55,0,0,0,5.3-1.22,10,10,0,0,0,3.42-3.24,14.36,14.36,0,0,0,1.87-4.61,24.73,24.73,0,0,0,.57-5.33A18.91,18.91,0,0,0,956.05,135.65Z" transform="translate(-395.43 -107.03)"/></svg>