<svg id="圖層_1" data-name="圖層 1" xmlns="http://www.w3.org/2000/svg" viewBox="0 0 1858.88 915.68"><defs><style>.cls-1,.cls-11,.cls-14,.cls-20,.cls-26,.cls-3{fill:#707070;}.cls-1,.cls-10,.cls-11,.cls-12,.cls-16,.cls-17,.cls-18,.cls-19,.cls-2,.cls-20,.cls-21,.cls-22,.cls-23,.cls-24,.cls-25,.cls-6,.cls-7,.cls-8{stroke:#27a2af;stroke-miterlimit:10;}.cls-1{stroke-width:2.9px;}.cls-12,.cls-2,.cls-22{fill:#ededed;}.cls-2{stroke-width:0.97px;}.cls-3{font-size:30.89px;}.cls-14,.cls-15,.cls-26,.cls-27,.cls-3{font-family:Copperplate-Light, Copperplate;}.cls-10,.cls-15,.cls-19,.cls-25,.cls-27,.cls-4,.cls-5{fill:#27a2af;}.cls-4,.cls-5{font-size:19.31px;}.cls-5{letter-spacing:0em;}.cls-16,.cls-17,.cls-21,.cls-23,.cls-6,.cls-7,.cls-9{fill:#fff;}.cls-6{stroke-width:1.22px;}.cls-7,.cls-8{stroke-width:0.61px;}.cls-18,.cls-24,.cls-8{fill:none;}.cls-10{stroke-width:0.76px;}.cls-11{stroke-width:2.9px;}.cls-12{stroke-width:0.97px;}.cls-13,.cls-14,.cls-15,.cls-26,.cls-27{isolation:isolate;}.cls-14{font-size:30.89px;}.cls-15{font-size:19.31px;}.cls-16{stroke-width:1.2px;}.cls-17,.cls-18{stroke-width:0.6px;}.cls-19{stroke-width:0.75px;}.cls-20{stroke-width:2.9px;}.cls-21{stroke-width:1.92px;}.cls-22,.cls-23,.cls-24{stroke-width:0.98px;}.cls-25{stroke-width:1.21px;}.cls-26{font-size:30.99px;}.cls-27{font-size:19.38px;}</style></defs><title>GMS_loading11</title><circle class="cls-1" cx="688.72" cy="227.49" r="224.62"/><path class="cls-2" d="M861.9,380,832,394.33a36.6,36.6,0,0,0-4.82,2.79l-26.93,18.46a12.62,12.62,0,0,1-17.17-4.6L774,395.15l-9.28-16.06a12.61,12.61,0,0,1,2.54-15.68,12.46,12.46,0,0,1,3.21-2l26.58-12a50.83,50.83,0,0,0,8.85-5.1L830,327a12.38,12.38,0,0,1,2.44-1.41,12.61,12.61,0,0,1,15.64,5.35l8.85,15.33,9.56,16.56A12.6,12.6,0,0,1,861.9,380Z" transform="translate(-35.02 -54.88)"/><path class="cls-2" d="M554,366.63c4.81-3.93,16.6-38.35,16.6-38.35s7.63-32.44,9.79-37.95c.09-3.11.76-4.06,1.35-4.82a4.12,4.12,0,0,1,3,2.72c1,3.12,14.8,1.37,25,6.32,9.91,4.8,23.3,10.39,23.3,10.39a3.41,3.41,0,0,1,2.1,4.32l-26.38,76.3a3.42,3.42,0,0,1-4.33,2.1S560.68,370.43,556.1,371,549.19,370.56,554,366.63Z" transform="translate(-35.02 -54.88)"/><path class="cls-2" d="M627.15,345.22l-31.94-8.92a36.36,36.36,0,0,0-5.46-1.08L556,329c-6.77,2.72-9.33-.79-4.42-6.66l3.74-23.54,2.26-21.07c-2.9-7.08-1.45-10,6.91-5.47,1.12.6,4.93-1.7,6.14-1.33l27.89,8.53a51.74,51.74,0,0,0,10,2l29.6,2.88a12.39,12.39,0,0,1,2.76.55,12.61,12.61,0,0,1,8.23,14.34l-3.45,17.36-3.73,18.75A12.59,12.59,0,0,1,627.15,345.22Z" transform="translate(-35.02 -54.88)"/><rect class="cls-2" x="595.16" y="331.87" width="87.53" height="57.93" rx="11.59" ry="11.59" transform="translate(-48.5 -29.88) rotate(-2.22)"/><path class="cls-2" d="M813.13,315.44c3,5.42,34.88,23,34.88,23s30.63,13.15,35.68,16.23c3,.63,3.86,1.45,4.51,2.16A4.08,4.08,0,0,1,885,359.3c-3.26.5-3.92,14.35-10.57,23.54C868,391.77,860.16,404,860.16,404c-.43.77.73,3.69-1.23,4.29-2.14.66-2.53-2.48-3.39-3L785,366.07a3.42,3.42,0,0,1-1.32-4.63s24.57-40.08,24.85-44.68S810.1,310,813.13,315.44Z" transform="translate(-35.02 -54.88)"/><path class="cls-2" d="M814.26,375.68,781,374l-31,4.17a11.62,11.62,0,0,1-12-11.12l-1.34-34.73c-.25-6.37,3.36-14.36,11.13-12s20.87,1.86,34.71,2.66,37.59-4.19,37.83-4.28c5.52-2.17,3.8.6,3.71,3.83l-1,14.15a57.31,57.31,0,0,0,.4,12.14l2.06,14.87A11.61,11.61,0,0,1,814.26,375.68Z" transform="translate(-35.02 -54.88)"/><path class="cls-2" d="M681.49,403.71c-5.17-6.22-48.2-6.28-48.2-6.28s-40.22,2.14-47.33,1.5c-.24.06-1.84,1.34-2.05,1.38a3.86,3.86,0,0,1-4.28-5.53l1.42-1.27c2.25-3.95-2.42-16.53-.13-30.05,2.21-13.11,4.17-30.54,4.17-30.54a4.11,4.11,0,0,1,4.3-3.9l97.43,4.79a4.12,4.12,0,0,1,3.9,4.3s-8.48,57.06-4.06,60.69c.7.57,3.67,3,.83,5.49C686.67,405,683.34,406,681.49,403.71Z" transform="translate(-35.02 -54.88)"/><path class="cls-2" d="M623.6,380.55c-3-5.47-34.51-23.57-34.51-23.57s-30.41-13.64-35.41-16.8c-3-.67-3.84-1.51-4.47-2.24a4.11,4.11,0,0,1,3.23-2.4c3.27-.44,4.15-14.28,10.94-23.37C570,303.35,578,291.26,578,291.26a3.41,3.41,0,0,1,4.65-1.24l69.91,40.36a3.42,3.42,0,0,1,1.25,4.65s-25.21,39.68-25.57,44.27S626.55,386,623.6,380.55Z" transform="translate(-35.02 -54.88)"/><path class="cls-2" d="M786.14,360.47l17,20a24,24,0,0,1-2.78,33.66l-1.12,1c-10,8.49-14.22,22.69-33.66-2.78l-17-20a24,24,0,0,1,2.77-33.66l1.13-1C768.17,343.63,777.64,350.45,786.14,360.47Z" transform="translate(-35.02 -54.88)"/><path class="cls-2" d="M882.93,397.24s-23.16,17.39-33.61,22.7-32.24,15-32.24,15c-9.38,8.85-13.64,7.63-13.89-3.77l-8-12a59.2,59.2,0,0,1-5.26-9.88l-7.48-18c-4.43-6.36-5.79-9.65,1.77-10.29,1.29-.11,21-14.66,36.22-22.75s33.74-14,34.44-14.6c6.88-6.41,9.71-6.28,10.24,5l11.52,16,9.65,19.09C894.67,390.94,893.57,394.69,882.93,397.24Z" transform="translate(-35.02 -54.88)"/><path class="cls-2" d="M753.65,436.33l-74.47-29.77c-9.31.78-10.28-3.48-2.31-9.77L685.74,375a41.53,41.53,0,0,0,4-9.28l8-16.5c.22-6.25,4.6-7.55,7.84-2.39l75.87,32.36c8.41-1.14,10,2.38,3.78,9.77,0,0-5.89,16.63-7.35,21.24L767,433.2C766.53,444.84,761.44,444.46,753.65,436.33Z" transform="translate(-35.02 -54.88)"/><text class="cls-3" transform="translate(652.21 340.48)">G<tspan class="cls-4" x="22.3" y="0">ive</tspan></text><text class="cls-3" transform="translate(756.18 340.48)">S<tspan class="cls-4" x="20.61" y="0">hhheep</tspan></text><text class="cls-3" transform="translate(707.08 340.48)">M<tspan class="cls-5" x="25.73" y="0">e</tspan></text><path class="cls-6" d="M704.5,359.28c-6.68-1.61,35.29,11.06,46.57,6.66,7-2.75-32.56-20.77-32.56-20.77Z" transform="translate(-35.02 -54.88)"/><path class="cls-6" d="M698.79,374.69c-4.72-3.7,23.51,21.27,35.63,22.63,7.55.85-20-31.67-20-31.67Z" transform="translate(-35.02 -54.88)"/><path class="cls-6" d="M610.62,407.81c2.41-7.05-10.47,38.84-20.81,46.3-6.44,4.64.35-42.4.35-42.4Z" transform="translate(-35.02 -54.88)"/><path class="cls-6" d="M581.26,392.08c3.74-5.61-18.43,31.69-28.55,35.41-6.31,2.32,11.35-37.74,11.35-37.74Z" transform="translate(-35.02 -54.88)"/><path class="cls-6" d="M679,287.05s63.4-8.2,73.67,19.68c10.34,28.07-49.4,60.45-49.4,60.45" transform="translate(-35.02 -54.88)"/><path class="cls-6" d="M554.72,333.5c5.79-7.62,17.72-8.34,21.92-15.62,7.88-13.69,26-22.62,45.62-22.28,10.26.17,10.55-12.45,28.5-13.79,6.55-.49,14.32-7.87,23.29-7.05,8.74.8,14.55,3,18.7,5.88,8,5.46,9.8,13.17,14.51,17.27,4.31,3.76,5.41,10.4,7.79,16.92,1.48,4.07,4.93,7.4,5.42,12.07.8,7.55-1.45,18-.23,27.86a25.54,25.54,0,0,1-4.56,18.06A27.67,27.67,0,0,1,703,382.53c-7.12,2.73-11.76,5.36-15.35,8.15-4.54,3.53-8.9,9.56-14.56,11.87-11.15,4.54-7.83.79-15.84,3.42-9.93,3.25-11.28,9.55-17.44,9.2-9.22-.53-17.3,4.7-25.09,7.85-12.11,4.89-13.85-2.68-23.45-2.08-8,.5-10-5.56-13.83-6.52-8.39-2.13-9-12.41-15-15.32-7.7-3.75-8.53-7.83-10-11.06-3.87-8.28,2.72-10.46-4.84-22.33C544.58,361,540.94,351.62,554.72,333.5Z" transform="translate(-35.02 -54.88)"/><path class="cls-7" d="M681.4,332.33c.48-1.69,3.07-9.42,10.15-12a9,9,0,0,1,6.25.29,7.51,7.51,0,0,1,3.32,9.8c-2.62,5.55-10.21,8.41-16.6,6.7a15.6,15.6,0,0,1-11.24-13.38c-.69-7.68,5.26-12.86,7.46-14.77,8.57-7.45,16.58-5.66,16.58-5.66s-1.68-8-2.58-15.41c-11.58,0-19,6.59-23,10.29a31.78,31.78,0,0,0-9.88,16.42c-.61,2.67-2.39,11,2,19.64.62,1.21,7.25,13.7,20.57,14.65a24.56,24.56,0,0,0,16.25-5.08c2-1.54,8.17-6.15,9.21-14.18.19-1.47,1.16-10.46-4.83-14.67-4.23-3-9.75-2.44-11.87-2a17.4,17.4,0,0,0-8.86,5.73C679.71,324.29,681.18,331.36,681.4,332.33Z" transform="translate(-35.02 -54.88)"/><path class="cls-8" d="M665.41,305.8c.15.4,2.74,4.55,5.3,6,2.78,1.6,5.38,1.76,5.88,1.46" transform="translate(-35.02 -54.88)"/><path class="cls-8" d="M667.27,302.79a17.54,17.54,0,0,0,5.24,6.23c2.47,1.74,6.27,1.6,6.76,1.29" transform="translate(-35.02 -54.88)"/><path class="cls-8" d="M662.39,330.53c.3.31,2,1.61,5.9,1.17a10.93,10.93,0,0,0,6.17-3.51" transform="translate(-35.02 -54.88)"/><path class="cls-8" d="M661.38,327.23c.3.31,2.08,2.29,6,1.84a11,11,0,0,0,6.16-3.26" transform="translate(-35.02 -54.88)"/><path class="cls-8" d="M699.24,333.17a6.12,6.12,0,0,1,4,2.5c1.93,2.4,2.07,3.63,2,4.07" transform="translate(-35.02 -54.88)"/><path class="cls-8" d="M686.14,337.46a8.73,8.73,0,0,1-.28,6.71c-1.71,3.53-4.08,4.17-4.62,4.32" transform="translate(-35.02 -54.88)"/><path class="cls-8" d="M683.89,336.85a7.59,7.59,0,0,1,0,6.45,7.86,7.86,0,0,1-5.37,4.3" transform="translate(-35.02 -54.88)"/><path class="cls-8" d="M697.68,334.69a5.93,5.93,0,0,1,4.21,2.37c1.93,2.4,1.55,4.23,1.48,4.67" transform="translate(-35.02 -54.88)"/><path class="cls-8" d="M698.64,320.89a7,7,0,0,1,3.94-3.41c2.91-1,4.53-.24,4.91,0" transform="translate(-35.02 -54.88)"/><path class="cls-8" d="M700,322.18a5.46,5.46,0,0,1,3.48-3.25,5.68,5.68,0,0,1,5.06.33" transform="translate(-35.02 -54.88)"/><path class="cls-9" d="M691.42,283.87c-5.56,2.4-8.12,6.2-5.32,10.43,2,3,5.64,2.61,6.44,5.45.74,2.59-2,3.93-1.28,6.38.85,2.78,4.79,3.41,7.85,2.16,5.35-2.19,7.75-1.7,5.67-6.34C695.69,281.73,692.61,283.35,691.42,283.87Z" transform="translate(-35.02 -54.88)"/><circle class="cls-10" cx="687.93" cy="246.55" r="4.14"/><path class="cls-8" d="M744.86,307.9c5.91-.49,5.26-.61,5.26-.61a31,31,0,0,0,.47-4.47" transform="translate(-35.02 -54.88)"/><line class="cls-8" x1="718.46" y1="256.53" x2="715.16" y2="252.39"/><circle class="cls-1" cx="1149.22" cy="227.49" r="224.62"/><path class="cls-2" d="M1322.4,380l-29.89,14.34a36.6,36.6,0,0,0-4.82,2.79l-26.93,18.46a12.62,12.62,0,0,1-17.17-4.6l-9.13-15.83-9.28-16.06a12.63,12.63,0,0,1,2.54-15.68,12.46,12.46,0,0,1,3.21-2l26.59-12a51.11,51.11,0,0,0,8.84-5.1L1290.51,327a12.38,12.38,0,0,1,2.44-1.41,12.61,12.61,0,0,1,15.64,5.35l8.85,15.33,9.56,16.56A12.6,12.6,0,0,1,1322.4,380Z" transform="translate(-35.02 -54.88)"/><path class="cls-2" d="M1014.5,366.63c4.81-3.93,16.6-38.35,16.6-38.35s7.63-32.44,9.79-37.95c.09-3.11.76-4.06,1.35-4.82a4.12,4.12,0,0,1,3,2.72c1,3.12,14.8,1.37,25,6.32,9.91,4.8,23.3,10.39,23.3,10.39a3.4,3.4,0,0,1,2.1,4.32l-26.38,76.3a3.42,3.42,0,0,1-4.33,2.1s-43.74-17.23-48.32-16.71S1009.7,370.56,1014.5,366.63Z" transform="translate(-35.02 -54.88)"/><path class="cls-2" d="M1087.65,345.22l-31.94-8.92a36.36,36.36,0,0,0-5.46-1.08L1016.48,329c-6.77,2.72-9.32-.79-4.42-6.66l3.74-23.54,2.26-21.07c-2.9-7.08-1.45-10,6.92-5.47,1.11.6,4.93-1.7,6.14-1.33l27.88,8.53a51.74,51.74,0,0,0,10,2l29.6,2.88a12.39,12.39,0,0,1,2.76.55,12.61,12.61,0,0,1,8.23,14.34l-3.45,17.36-3.72,18.75A12.61,12.61,0,0,1,1087.65,345.22Z" transform="translate(-35.02 -54.88)"/><rect class="cls-2" x="1055.66" y="331.87" width="87.53" height="57.93" rx="11.59" ry="11.59" transform="translate(-48.16 -12.05) rotate(-2.22)"/><path class="cls-2" d="M1273.63,315.44c3,5.42,34.88,23,34.88,23s30.63,13.15,35.68,16.23c3,.63,3.86,1.45,4.51,2.16a4.08,4.08,0,0,1-3.19,2.46c-3.26.5-3.92,14.35-10.57,23.54-6.44,8.93-14.28,21.14-14.28,21.14-.43.77.73,3.69-1.23,4.29-2.14.66-2.53-2.48-3.39-3l-70.56-39.23a3.42,3.42,0,0,1-1.32-4.63s24.57-40.08,24.85-44.68S1270.6,310,1273.63,315.44Z" transform="translate(-35.02 -54.88)"/><path class="cls-2" d="M1274.76,375.68,1241.48,374l-31,4.17a11.62,11.62,0,0,1-12-11.12l-1.34-34.73c-.25-6.37,3.36-14.36,11.13-12s20.87,1.86,34.71,2.66,37.59-4.19,37.83-4.28c5.52-2.17,3.8.6,3.71,3.83l-1,14.15a57.31,57.31,0,0,0,.4,12.14l2.06,14.87A11.61,11.61,0,0,1,1274.76,375.68Z" transform="translate(-35.02 -54.88)"/><path class="cls-2" d="M1142,403.71c-5.17-6.22-48.2-6.28-48.2-6.28s-40.21,2.14-47.33,1.5c-.24.06-1.84,1.34-2,1.38a3.86,3.86,0,0,1-4.28-5.53l1.42-1.27c2.25-3.95-2.41-16.53-.13-30.05,2.21-13.11,4.17-30.54,4.17-30.54a4.12,4.12,0,0,1,4.3-3.9l97.43,4.79a4.12,4.12,0,0,1,3.9,4.3s-8.48,57.06-4.06,60.69c.7.57,3.67,3,.83,5.49C1147.17,405,1143.84,406,1142,403.71Z" transform="translate(-35.02 -54.88)"/><path class="cls-2" d="M1084.1,380.55c-2.95-5.47-34.51-23.57-34.51-23.57s-30.41-13.64-35.41-16.8c-3-.67-3.84-1.51-4.47-2.24a4.11,4.11,0,0,1,3.23-2.4c3.27-.44,4.15-14.28,10.94-23.37,6.59-8.82,14.62-20.91,14.62-20.91a3.41,3.41,0,0,1,4.65-1.24l69.91,40.36a3.42,3.42,0,0,1,1.25,4.65s-25.21,39.68-25.57,44.27S1087.05,386,1084.1,380.55Z" transform="translate(-35.02 -54.88)"/><path class="cls-2" d="M1246.64,360.47l17,20a24,24,0,0,1-2.78,33.66l-1.12,1c-10,8.49-14.22,22.69-33.66-2.78l-17-20a24,24,0,0,1,2.77-33.66l1.13-1C1228.67,343.63,1238.14,350.45,1246.64,360.47Z" transform="translate(-35.02 -54.88)"/><path class="cls-2" d="M1343.44,397.24s-23.17,17.39-33.62,22.7-32.24,15-32.24,15c-9.38,8.85-13.64,7.63-13.89-3.77l-8-12a59.2,59.2,0,0,1-5.26-9.88l-7.48-18c-4.43-6.36-5.79-9.65,1.77-10.29,1.29-.11,21-14.66,36.22-22.75s33.74-14,34.44-14.6c6.88-6.41,9.71-6.28,10.24,5l11.52,16,9.65,19.09C1355.17,390.94,1354.07,394.69,1343.44,397.24Z" transform="translate(-35.02 -54.88)"/><path class="cls-2" d="M1214.15,436.33l-74.47-29.77c-9.31.78-10.28-3.48-2.31-9.77l8.87-21.75a42,42,0,0,0,4-9.28l8-16.5c.22-6.25,4.6-7.55,7.84-2.39L1242,379.23c8.41-1.14,10,2.38,3.78,9.77,0,0-5.89,16.63-7.35,21.24l-10.86,23C1227,444.84,1221.94,444.46,1214.15,436.33Z" transform="translate(-35.02 -54.88)"/><text class="cls-3" transform="translate(1112.71 340.48)">G<tspan class="cls-4" x="22.3" y="0">ive</tspan></text><text class="cls-3" transform="translate(1216.68 340.48)">S<tspan class="cls-4" x="20.61" y="0">hhheep</tspan></text><text class="cls-3" transform="translate(1167.58 340.48)">M<tspan class="cls-5" x="25.73" y="0">e</tspan></text><path class="cls-6" d="M1188.55,344.59c-6.69,1.57,36.5-6,44.58-15,5-5.62-38.42-3.86-38.42-3.86Z" transform="translate(-35.02 -54.88)"/><path class="cls-6" d="M1179.75,356.92c-5.8-1.54,30,10.26,41.66,6.73,7.27-2.2-30.87-21.21-30.87-21.21Z" transform="translate(-35.02 -54.88)"/><path class="cls-6" d="M1105.21,387.36c2.4-7.05-10.48,38.84-20.82,46.3-6.44,4.65.36-42.4.36-42.4Z" transform="translate(-35.02 -54.88)"/><path class="cls-6" d="M1070.46,372.91c3.74-5.61-18.42,31.69-28.55,35.41-6.3,2.32,11.36-37.74,11.36-37.74Z" transform="translate(-35.02 -54.88)"/><path class="cls-6" d="M1161.68,261.61s63.39-8.21,73.66,19.67c10.34,28.07-49.4,60.45-49.4,60.45" transform="translate(-35.02 -54.88)"/><path class="cls-6" d="M1037.36,308.05c5.8-7.62,17.73-8.34,21.92-15.62,7.89-13.68,26-22.62,45.62-22.28,10.26.17,10.55-12.44,28.5-13.78,6.56-.49,14.32-7.88,23.29-7.06,8.74.81,14.55,3,18.7,5.88,8,5.47,9.81,13.17,14.52,17.28,4.3,3.76,5.41,10.4,7.78,16.91,1.48,4.07,4.94,7.4,5.43,12.08.79,7.54-1.46,18-.24,27.86a25.5,25.5,0,0,1-4.56,18.05,27.63,27.63,0,0,1-12.68,9.72c-7.12,2.73-11.76,5.35-15.35,8.14-4.54,3.53-8.9,9.57-14.56,11.87-11.14,4.54-7.83.8-15.83,3.42-9.93,3.26-11.28,9.56-17.44,9.2-9.22-.53-17.3,4.7-25.1,7.85-12.11,4.89-13.84-2.68-23.44-2.07-8,.5-10-5.57-13.84-6.53-8.38-2.13-9-12.4-15-15.32-7.7-3.75-8.53-7.82-10-11-3.87-8.28,2.72-10.47-4.84-22.34C1027.22,335.55,1023.59,326.18,1037.36,308.05Z" transform="translate(-35.02 -54.88)"/><path class="cls-7" d="M1164,306.88c.49-1.69,3.07-9.41,10.16-12a9,9,0,0,1,6.25.3,7.5,7.5,0,0,1,3.31,9.8c-2.62,5.55-10.21,8.4-16.6,6.69a15.57,15.57,0,0,1-11.23-13.38c-.7-7.68,5.25-12.85,7.46-14.76,8.57-7.45,16.58-5.66,16.58-5.66s-1.69-8-2.58-15.41c-11.59,0-19,6.59-23,10.28a31.9,31.9,0,0,0-9.88,16.42c-.61,2.67-2.38,11,2,19.65.62,1.21,7.26,13.7,20.57,14.64a24.58,24.58,0,0,0,16.25-5.07c2.05-1.54,8.17-6.15,9.21-14.19.19-1.46,1.16-10.46-4.82-14.66-4.23-3-9.76-2.44-11.87-2a17.35,17.35,0,0,0-8.87,5.73C1162.36,298.84,1163.82,305.91,1164,306.88Z" transform="translate(-35.02 -54.88)"/><path class="cls-8" d="M1148.05,280.36c.16.4,2.74,4.55,5.3,6,2.78,1.61,5.39,1.76,5.88,1.46" transform="translate(-35.02 -54.88)"/><path class="cls-8" d="M1149.91,277.34a17.61,17.61,0,0,0,5.25,6.24,9.38,9.38,0,0,0,6.76,1.29" transform="translate(-35.02 -54.88)"/><path class="cls-8" d="M1145,305.09c.3.31,2,1.61,5.91,1.16a10.93,10.93,0,0,0,6.16-3.51" transform="translate(-35.02 -54.88)"/><path class="cls-8" d="M1144,301.79c.29.31,2.08,2.28,6,1.84a11,11,0,0,0,6.16-3.26" transform="translate(-35.02 -54.88)"/><path class="cls-8" d="M1181.88,307.73a6.08,6.08,0,0,1,4,2.5c1.94,2.4,2.07,3.63,2,4.06" transform="translate(-35.02 -54.88)"/><path class="cls-8" d="M1168.79,312a8.73,8.73,0,0,1-.28,6.71c-1.72,3.53-4.08,4.18-4.62,4.33" transform="translate(-35.02 -54.88)"/><path class="cls-8" d="M1166.53,311.4a7.57,7.57,0,0,1,0,6.46,7.79,7.79,0,0,1-5.37,4.29" transform="translate(-35.02 -54.88)"/><path class="cls-8" d="M1180.32,309.24a6,6,0,0,1,4.21,2.37c1.94,2.4,1.56,4.24,1.48,4.67" transform="translate(-35.02 -54.88)"/><path class="cls-8" d="M1181.28,295.44a7,7,0,0,1,3.94-3.4c2.92-1,4.53-.25,4.92,0" transform="translate(-35.02 -54.88)"/><path class="cls-8" d="M1182.68,296.74a5.49,5.49,0,0,1,3.49-3.25,5.66,5.66,0,0,1,5,.33" transform="translate(-35.02 -54.88)"/><path class="cls-9" d="M1174.06,258.42c-5.55,2.4-8.12,6.21-5.31,10.44,2,3,5.63,2.61,6.44,5.44.74,2.6-2,3.93-1.29,6.38.85,2.78,4.8,3.42,7.85,2.16,5.35-2.19,7.76-1.7,5.67-6.33C1178.34,256.29,1175.26,257.9,1174.06,258.42Z" transform="translate(-35.02 -54.88)"/><circle class="cls-10" cx="1170.57" cy="221.1" r="4.14"/><path class="cls-8" d="M1227.5,282.45c5.92-.49,5.27-.6,5.27-.6a32.7,32.7,0,0,0,.47-4.48" transform="translate(-35.02 -54.88)"/><line class="cls-8" x1="1201.11" y1="231.08" x2="1197.8" y2="226.94"/><circle class="cls-1" cx="226.07" cy="689.61" r="224.62"/><path class="cls-2" d="M399.26,842.1l-29.89,14.35a36.25,36.25,0,0,0-4.83,2.79l-26.92,18.45a12.6,12.6,0,0,1-17.17-4.6l-9.14-15.82L302,841.21a12.35,12.35,0,0,1,5.75-17.69l26.58-12a51.2,51.2,0,0,0,8.85-5.1l24.15-17.35a11.6,11.6,0,0,1,2.44-1.4,12.6,12.6,0,0,1,15.64,5.35l8.85,15.32,9.56,16.57A12.59,12.59,0,0,1,399.26,842.1Z" transform="translate(-35.02 -54.88)"/><path class="cls-2" d="M91.36,828.74c4.8-3.93,16.6-38.34,16.6-38.34s7.63-32.45,9.79-37.95c.08-3.12.75-4.06,1.35-4.82a4.11,4.11,0,0,1,3,2.71c1.05,3.13,14.81,1.38,25,6.32,9.9,4.8,23.3,10.39,23.3,10.39a3.42,3.42,0,0,1,2.1,4.33l-26.39,76.3a3.41,3.41,0,0,1-4.32,2.1S98,832.54,93.46,833.07,86.55,832.67,91.36,828.74Z" transform="translate(-35.02 -54.88)"/><path class="cls-2" d="M164.5,807.33l-31.93-8.92a36.25,36.25,0,0,0-5.47-1.08l-33.76-6.2c-6.77,2.72-9.33-.79-4.42-6.67l3.74-23.53,2.25-21.08c-2.89-7.08-1.44-10,6.92-5.47,1.11.6,4.93-1.69,6.14-1.32l27.89,8.52a50.88,50.88,0,0,0,10,2l29.59,2.88a11.83,11.83,0,0,1,2.77.55,12.62,12.62,0,0,1,8.23,14.33L183,778.7l-3.73,18.76A12.6,12.6,0,0,1,164.5,807.33Z" transform="translate(-35.02 -54.88)"/><rect class="cls-2" x="132.52" y="793.98" width="87.53" height="57.93" rx="11.59" ry="11.59" transform="translate(-66.74 -47.44) rotate(-2.22)"/><path class="cls-2" d="M350.49,777.56c3,5.42,34.88,23,34.88,23S416,813.71,421,816.79c3.06.63,3.87,1.46,4.51,2.17a4.1,4.1,0,0,1-3.19,2.46c-3.26.49-3.92,14.34-10.56,23.54-6.45,8.92-14.28,21.14-14.28,21.14-.43.77.73,3.68-1.23,4.29-2.14.65-2.53-2.49-3.4-3l-70.55-39.24a3.4,3.4,0,0,1-1.32-4.62s24.57-40.09,24.84-44.68S347.46,772.14,350.49,777.56Z" transform="translate(-35.02 -54.88)"/><path class="cls-2" d="M351.62,837.8l-33.28-1.69-31,4.18a11.62,11.62,0,0,1-12-11.13l-1.35-34.73c-.24-6.36,3.37-14.36,11.13-12s20.88,1.85,34.72,2.66,37.59-4.19,37.83-4.29c5.51-2.16,3.8.61,3.7,3.84l-1,14.15a57.89,57.89,0,0,0,.4,12.13l2.07,14.87A11.63,11.63,0,0,1,351.62,837.8Z" transform="translate(-35.02 -54.88)"/><path class="cls-2" d="M218.84,865.83c-5.17-6.22-48.2-6.28-48.2-6.28s-40.21,2.13-47.33,1.49c-.23.06-1.84,1.34-2,1.39A3.86,3.86,0,0,1,117,856.9s1.4-1.26,1.41-1.28c2.26-3.94-2.41-16.52-.13-30,2.22-13.11,4.17-30.54,4.17-30.54a4.13,4.13,0,0,1,4.31-3.91l97.43,4.79a4.13,4.13,0,0,1,3.9,4.31s-8.48,57.06-4.06,60.68c.7.58,3.67,3,.82,5.49C224,867.12,220.7,868.06,218.84,865.83Z" transform="translate(-35.02 -54.88)"/><path class="cls-2" d="M161,842.66c-2.94-5.46-34.5-23.56-34.5-23.56S96,805.46,91,802.3c-3-.68-3.84-1.52-4.47-2.24a4.09,4.09,0,0,1,3.22-2.41c3.27-.44,4.16-14.27,10.95-23.36,6.59-8.82,14.62-20.91,14.62-20.91a3.41,3.41,0,0,1,4.64-1.25l69.92,40.37a3.4,3.4,0,0,1,1.24,4.64S166,836.83,165.6,841.42,163.9,848.13,161,842.66Z" transform="translate(-35.02 -54.88)"/><path class="cls-2" d="M323.49,822.58l17,20a24,24,0,0,1-2.77,33.66l-1.13,1c-10,8.5-14.22,22.7-33.66-2.77l-17-20a24,24,0,0,1,2.78-33.66l1.12-1C305.53,805.75,315,812.56,323.49,822.58Z" transform="translate(-35.02 -54.88)"/><path class="cls-2" d="M420.29,859.35s-23.16,17.4-33.62,22.71-32.23,15-32.23,15c-9.39,8.84-13.64,7.63-13.9-3.78l-7.94-12a58.14,58.14,0,0,1-5.26-9.88l-7.48-18c-4.43-6.36-5.8-9.65,1.77-10.3,1.28-.11,21-14.65,36.21-22.74s33.75-13.95,34.45-14.61c6.88-6.4,9.71-6.27,10.24,5l11.52,16,9.65,19.09C432,853.06,430.93,856.8,420.29,859.35Z" transform="translate(-35.02 -54.88)"/><path class="cls-2" d="M291,898.44l-74.46-29.76c-9.32.78-10.28-3.48-2.32-9.78l8.87-21.75a41.17,41.17,0,0,0,4-9.28l8-16.49c.23-6.25,4.6-7.55,7.85-2.4l75.86,32.37c8.41-1.14,10,2.37,3.79,9.77,0,0-5.9,16.63-7.36,21.24l-10.85,23C303.89,907,298.8,906.58,291,898.44Z" transform="translate(-35.02 -54.88)"/><text class="cls-3" transform="translate(189.57 802.59)">G<tspan class="cls-4" x="22.3" y="0">ive</tspan></text><text class="cls-3" transform="translate(293.54 802.59)">S<tspan class="cls-4" x="20.61" y="0">hhheep</tspan></text><text class="cls-3" transform="translate(244.44 802.59)">M<tspan class="cls-5" x="25.73" y="0">e</tspan></text><path class="cls-6" d="M292.65,781.86c-6.69,1.57,36.5-6,44.58-15,5-5.62-38.42-3.87-38.42-3.87Z" transform="translate(-35.02 -54.88)"/><path class="cls-6" d="M283.85,794.19c-5.8-1.53,30,10.27,41.66,6.74,7.27-2.2-30.87-21.21-30.87-21.21Z" transform="translate(-35.02 -54.88)"/><path class="cls-6" d="M206.89,824.86c3.55-6.55-16.84,36.53-28.28,42.15-7.13,3.5,7.45-41.74,7.45-41.74Z" transform="translate(-35.02 -54.88)"/><path class="cls-6" d="M166.19,807.32c3.74-5.61-18.43,31.69-28.55,35.41C131.33,845.05,149,805,149,805Z" transform="translate(-35.02 -54.88)"/><path class="cls-6" d="M265.78,698.88s63.39-8.2,73.66,19.68C349.78,746.63,290,779,290,779" transform="translate(-35.02 -54.88)"/><path class="cls-6" d="M141.46,745.33c5.8-7.62,17.73-8.34,21.92-15.62,7.89-13.69,26-22.62,45.62-22.28,10.27.17,10.55-12.45,28.5-13.79,6.56-.49,14.32-7.87,23.29-7,8.74.8,14.55,3,18.7,5.88,8,5.46,9.81,13.17,14.52,17.27,4.3,3.76,5.41,10.4,7.78,16.92,1.48,4.07,4.94,7.4,5.43,12.07.79,7.55-1.46,18-.24,27.86a25.54,25.54,0,0,1-4.56,18.06,27.67,27.67,0,0,1-12.68,9.71c-7.12,2.73-11.76,5.36-15.35,8.15-4.54,3.53-8.9,9.56-14.55,11.87-11.15,4.54-7.84.79-15.84,3.42-9.93,3.25-11.28,9.55-17.44,9.2-9.22-.53-17.3,4.7-25.1,7.85-12.11,4.89-13.84-2.68-23.44-2.08-8,.5-10-5.56-13.84-6.52-8.38-2.13-9-12.41-15-15.32-7.7-3.75-8.52-7.83-10-11.06-3.87-8.28,2.73-10.46-4.84-22.33C131.33,772.82,127.69,763.45,141.46,745.33Z" transform="translate(-35.02 -54.88)"/><path class="cls-7" d="M268.14,744.16c.49-1.69,3.07-9.42,10.16-12a9,9,0,0,1,6.25.29,7.5,7.5,0,0,1,3.31,9.8c-2.61,5.55-10.21,8.41-16.6,6.7A15.58,15.58,0,0,1,260,735.59c-.7-7.68,5.26-12.86,7.46-14.77,8.57-7.45,16.58-5.65,16.58-5.65s-1.69-8-2.58-15.41c-11.59,0-19,6.58-23,10.28a31.85,31.85,0,0,0-9.88,16.42,28.77,28.77,0,0,0,2,19.64c.61,1.21,7.25,13.7,20.56,14.65a24.51,24.51,0,0,0,16.25-5.08c2.05-1.54,8.17-6.15,9.21-14.18.19-1.47,1.17-10.46-4.82-14.67-4.23-3-9.76-2.44-11.87-2a17.38,17.38,0,0,0-8.87,5.74C266.46,736.12,267.93,743.19,268.14,744.16Z" transform="translate(-35.02 -54.88)"/><path class="cls-8" d="M252.15,717.63c.16.4,2.75,4.55,5.3,6,2.78,1.6,5.39,1.76,5.88,1.46" transform="translate(-35.02 -54.88)"/><path class="cls-8" d="M254,714.62a17.62,17.62,0,0,0,5.25,6.23,9.33,9.33,0,0,0,6.76,1.29" transform="translate(-35.02 -54.88)"/><path class="cls-8" d="M249.13,742.36c.3.31,2,1.61,5.91,1.17A10.93,10.93,0,0,0,261.2,740" transform="translate(-35.02 -54.88)"/><path class="cls-8" d="M248.13,739.06c.3.31,2.08,2.29,6,1.84a11,11,0,0,0,6.16-3.26" transform="translate(-35.02 -54.88)"/><path class="cls-8" d="M286,745a6.12,6.12,0,0,1,4,2.5c1.94,2.4,2.08,3.63,2,4.07" transform="translate(-35.02 -54.88)"/><path class="cls-8" d="M272.89,749.29a8.73,8.73,0,0,1-.28,6.71c-1.72,3.53-4.08,4.17-4.62,4.32" transform="translate(-35.02 -54.88)"/><path class="cls-8" d="M270.63,748.68a7.55,7.55,0,0,1,0,6.45,7.84,7.84,0,0,1-5.37,4.3" transform="translate(-35.02 -54.88)"/><path class="cls-8" d="M284.42,746.52a6,6,0,0,1,4.21,2.37c1.94,2.4,1.56,4.23,1.48,4.67" transform="translate(-35.02 -54.88)"/><path class="cls-8" d="M285.39,732.72a6.92,6.92,0,0,1,3.94-3.41c2.91-1,4.52-.24,4.91,0" transform="translate(-35.02 -54.88)"/><path class="cls-8" d="M286.78,734a5.54,5.54,0,0,1,3.49-3.25,5.66,5.66,0,0,1,5.05.33" transform="translate(-35.02 -54.88)"/><path class="cls-9" d="M278.16,695.7c-5.55,2.4-8.12,6.2-5.31,10.43,2,3,5.63,2.61,6.44,5.45.74,2.59-2,3.93-1.29,6.38.85,2.78,4.8,3.41,7.86,2.16,5.35-2.19,7.75-1.7,5.67-6.34C282.44,693.56,279.36,695.18,278.16,695.7Z" transform="translate(-35.02 -54.88)"/><circle class="cls-10" cx="274.67" cy="658.38" r="4.14"/><path class="cls-8" d="M331.6,719.73c5.92-.49,5.27-.61,5.27-.61a32.53,32.53,0,0,0,.47-4.47" transform="translate(-35.02 -54.88)"/><line class="cls-8" x1="305.21" y1="668.36" x2="301.9" y2="664.22"/><circle class="cls-1" cx="698.88" cy="689.61" r="224.62"/><path class="cls-2" d="M872.07,842.1l-29.9,14.35a36.14,36.14,0,0,0-4.82,2.79l-26.93,18.45a12.59,12.59,0,0,1-17.16-4.6l-9.14-15.82-9.27-16.06a12.62,12.62,0,0,1,2.54-15.69,12.48,12.48,0,0,1,3.2-2l26.59-12a51.58,51.58,0,0,0,8.85-5.1l24.14-17.35a11.93,11.93,0,0,1,2.45-1.4,12.61,12.61,0,0,1,15.64,5.35l8.85,15.32,9.56,16.57A12.61,12.61,0,0,1,872.07,842.1Z" transform="translate(-35.02 -54.88)"/><path class="cls-2" d="M564.16,828.74c4.81-3.93,16.61-38.34,16.61-38.34s7.62-32.45,9.78-37.95c.09-3.12.76-4.06,1.35-4.82a4.12,4.12,0,0,1,3,2.71c1,3.13,14.8,1.38,25,6.32,9.9,4.8,23.29,10.39,23.29,10.39a3.42,3.42,0,0,1,2.11,4.33l-26.39,76.3a3.42,3.42,0,0,1-4.33,2.1s-43.74-17.24-48.31-16.71S559.36,832.67,564.16,828.74Z" transform="translate(-35.02 -54.88)"/><path class="cls-2" d="M637.31,807.33l-31.93-8.92a36.49,36.49,0,0,0-5.47-1.08l-33.77-6.2c-6.77,2.72-9.32-.79-4.41-6.67l3.74-23.53,2.25-21.08c-2.9-7.08-1.45-10,6.92-5.47,1.11.6,4.93-1.69,6.14-1.32l27.88,8.52a51.12,51.12,0,0,0,10,2l29.59,2.88A11.75,11.75,0,0,1,651,747a12.62,12.62,0,0,1,8.24,14.33l-3.45,17.36-3.73,18.76A12.6,12.6,0,0,1,637.31,807.33Z" transform="translate(-35.02 -54.88)"/><rect class="cls-2" x="605.32" y="793.98" width="87.53" height="57.93" rx="11.59" ry="11.59" transform="translate(-66.38 -29.14) rotate(-2.22)"/><path class="cls-2" d="M823.3,777.56c3,5.42,34.88,23,34.88,23s30.62,13.14,35.67,16.22c3,.63,3.87,1.46,4.51,2.17a4.12,4.12,0,0,1-3.19,2.46c-3.26.49-3.92,14.34-10.57,23.54-6.44,8.92-14.28,21.14-14.28,21.14-.42.77.74,3.68-1.23,4.29-2.14.65-2.53-2.49-3.39-3l-70.56-39.24a3.42,3.42,0,0,1-1.32-4.62s24.57-40.09,24.85-44.68S820.26,772.14,823.3,777.56Z" transform="translate(-35.02 -54.88)"/><path class="cls-2" d="M824.43,837.8l-33.28-1.69-31,4.18a11.61,11.61,0,0,1-12-11.13l-1.35-34.73c-.25-6.36,3.37-14.36,11.13-12s20.88,1.85,34.71,2.66,37.6-4.19,37.84-4.29c5.51-2.16,3.79.61,3.7,3.84l-1,14.15a57.89,57.89,0,0,0,.4,12.13l2.06,14.87A11.62,11.62,0,0,1,824.43,837.8Z" transform="translate(-35.02 -54.88)"/><path class="cls-2" d="M691.65,865.83c-5.17-6.22-48.2-6.28-48.2-6.28s-40.21,2.13-47.33,1.49c-.23.06-1.84,1.34-2,1.39a3.85,3.85,0,0,1-4.27-5.53s1.4-1.26,1.41-1.28c2.25-3.94-2.41-16.52-.13-30,2.21-13.11,4.17-30.54,4.17-30.54a4.13,4.13,0,0,1,4.31-3.91L697,795.92a4.13,4.13,0,0,1,3.91,4.31s-8.48,57.06-4.06,60.68c.69.58,3.67,3,.82,5.49C696.83,867.12,693.51,868.06,691.65,865.83Z" transform="translate(-35.02 -54.88)"/><path class="cls-2" d="M633.76,842.66c-3-5.46-34.5-23.56-34.5-23.56s-30.41-13.64-35.41-16.8c-3-.68-3.84-1.52-4.48-2.24a4.12,4.12,0,0,1,3.23-2.41c3.27-.44,4.15-14.27,10.95-23.36,6.58-8.82,14.61-20.91,14.61-20.91a3.42,3.42,0,0,1,4.65-1.25l69.91,40.37a3.41,3.41,0,0,1,1.25,4.64s-25.21,39.69-25.56,44.28S636.71,848.13,633.76,842.66Z" transform="translate(-35.02 -54.88)"/><path class="cls-2" d="M796.3,822.58l17,20a24,24,0,0,1-2.77,33.66l-1.13,1c-10,8.5-14.22,22.7-33.66-2.77l-17-20a24,24,0,0,1,2.77-33.66l1.13-1C778.33,805.75,787.8,812.56,796.3,822.58Z" transform="translate(-35.02 -54.88)"/><path class="cls-2" d="M893.1,859.35s-23.16,17.4-33.62,22.71-32.24,15-32.24,15c-9.38,8.84-13.63,7.63-13.89-3.78l-8-12a59.59,59.59,0,0,1-5.26-9.88l-7.48-18c-4.42-6.36-5.79-9.65,1.77-10.3,1.29-.11,21-14.65,36.22-22.74s33.74-13.95,34.45-14.61c6.87-6.4,9.71-6.27,10.23,5l11.52,16,9.65,19.09C904.83,853.06,903.74,856.8,893.1,859.35Z" transform="translate(-35.02 -54.88)"/><path class="cls-2" d="M763.81,898.44l-74.46-29.76c-9.32.78-10.28-3.48-2.32-9.78l8.87-21.75a41.63,41.63,0,0,0,4-9.28l8-16.49c.22-6.25,4.6-7.55,7.84-2.4l75.87,32.37c8.41-1.14,10,2.37,3.79,9.77,0,0-5.9,16.63-7.36,21.24l-10.86,23C776.69,907,771.6,906.58,763.81,898.44Z" transform="translate(-35.02 -54.88)"/><text class="cls-3" transform="translate(662.37 802.59)">G<tspan class="cls-4" x="22.3" y="0">ive</tspan></text><text class="cls-3" transform="translate(766.35 802.59)">S<tspan class="cls-4" x="20.61" y="0">hhheep</tspan></text><text class="cls-3" transform="translate(717.24 802.59)">M<tspan class="cls-5" x="25.73" y="0">e</tspan></text><path class="cls-6" d="M794.08,758.75c-6.69,1.57,36.5-6,44.58-15,5-5.62-38.42-3.87-38.42-3.87Z" transform="translate(-35.02 -54.88)"/><path class="cls-6" d="M792.19,769.23c-5.8-1.54,30,10.26,41.67,6.73,7.27-2.2-30.88-21.21-30.88-21.21Z" transform="translate(-35.02 -54.88)"/><path class="cls-6" d="M699.19,805.8c5-5.51-25,31.49-37.5,34.22-7.75,1.71,17.17-38.77,17.17-38.77Z" transform="translate(-35.02 -54.88)"/><path class="cls-6" d="M664,787.08c4.9-4.64-25,26.77-35.73,28.14-6.67.85,19.49-34.25,19.49-34.25Z" transform="translate(-35.02 -54.88)"/><path class="cls-6" d="M765.76,681.11s63.39-8.21,73.66,19.67c10.34,28.07-49.4,60.45-49.4,60.45" transform="translate(-35.02 -54.88)"/><path class="cls-6" d="M641.44,727.56c5.8-7.63,17.73-8.35,21.92-15.63,7.89-13.68,26-22.61,45.62-22.28,10.26.18,10.55-12.44,28.5-13.78,6.56-.49,14.32-7.88,23.29-7,8.74.8,14.55,3,18.7,5.88,8,5.46,9.81,13.16,14.52,17.27,4.3,3.76,5.41,10.4,7.78,16.91,1.48,4.07,4.94,7.4,5.43,12.08.79,7.54-1.46,18-.24,27.86a25.5,25.5,0,0,1-4.56,18,27.63,27.63,0,0,1-12.68,9.72c-7.12,2.73-11.76,5.35-15.35,8.14-4.54,3.53-8.9,9.57-14.56,11.87-11.14,4.54-7.83.8-15.83,3.42-9.94,3.26-11.28,9.56-17.44,9.2-9.22-.53-17.3,4.71-25.1,7.86C689.33,822,687.6,814.39,678,815c-8,.5-10-5.56-13.84-6.53-8.38-2.12-9-12.4-15-15.32-7.7-3.75-8.53-7.82-10-11-3.87-8.28,2.72-10.47-4.84-22.33C631.3,755.05,627.67,745.68,641.44,727.56Z" transform="translate(-35.02 -54.88)"/><path class="cls-7" d="M768.12,726.38c.49-1.69,3.07-9.41,10.16-12a9,9,0,0,1,6.25.3,7.5,7.5,0,0,1,3.31,9.8c-2.62,5.55-10.21,8.4-16.6,6.7A15.62,15.62,0,0,1,760,717.81c-.69-7.68,5.26-12.85,7.47-14.76,8.57-7.45,16.58-5.66,16.58-5.66s-1.69-8-2.58-15.41c-11.59,0-19,6.59-23,10.28a31.9,31.9,0,0,0-9.88,16.42c-.61,2.67-2.38,11,2,19.65.62,1.21,7.26,13.7,20.57,14.64a24.52,24.52,0,0,0,16.25-5.07c2.05-1.54,8.17-6.15,9.21-14.18.19-1.47,1.16-10.47-4.83-14.67-4.22-3-9.75-2.44-11.86-2a17.35,17.35,0,0,0-8.87,5.73C766.44,718.34,767.9,725.41,768.12,726.38Z" transform="translate(-35.02 -54.88)"/><path class="cls-8" d="M752.13,699.86c.16.4,2.74,4.55,5.3,6,2.78,1.61,5.39,1.77,5.88,1.46" transform="translate(-35.02 -54.88)"/><path class="cls-8" d="M754,696.85a17.71,17.71,0,0,0,5.25,6.23,9.38,9.38,0,0,0,6.76,1.29" transform="translate(-35.02 -54.88)"/><path class="cls-8" d="M749.11,724.59c.3.31,1.95,1.61,5.91,1.16a10.93,10.93,0,0,0,6.16-3.51" transform="translate(-35.02 -54.88)"/><path class="cls-8" d="M748.11,721.29c.29.31,2.08,2.28,6,1.84a11,11,0,0,0,6.16-3.26" transform="translate(-35.02 -54.88)"/><path class="cls-8" d="M786,727.23a6.08,6.08,0,0,1,4,2.5c1.94,2.4,2.07,3.63,2,4.06" transform="translate(-35.02 -54.88)"/><path class="cls-8" d="M772.87,731.52a8.7,8.7,0,0,1-.28,6.7c-1.72,3.53-4.09,4.18-4.62,4.33" transform="translate(-35.02 -54.88)"/><path class="cls-8" d="M770.61,730.91a7.55,7.55,0,0,1,0,6.45,7.8,7.8,0,0,1-5.37,4.29" transform="translate(-35.02 -54.88)"/><path class="cls-8" d="M784.4,728.74a6,6,0,0,1,4.21,2.37c1.94,2.41,1.56,4.24,1.48,4.67" transform="translate(-35.02 -54.88)"/><path class="cls-8" d="M785.36,714.94a7,7,0,0,1,3.94-3.4c2.92-1,4.53-.24,4.92,0" transform="translate(-35.02 -54.88)"/><path class="cls-8" d="M786.76,716.24a5.49,5.49,0,0,1,3.48-3.25,5.68,5.68,0,0,1,5.06.33" transform="translate(-35.02 -54.88)"/><path class="cls-9" d="M778.14,677.92c-5.55,2.4-8.12,6.21-5.31,10.44,2,3,5.63,2.61,6.44,5.44.74,2.6-2,3.94-1.29,6.38.85,2.78,4.8,3.42,7.85,2.16,5.35-2.18,7.76-1.7,5.67-6.33C782.42,675.79,779.34,677.41,778.14,677.92Z" transform="translate(-35.02 -54.88)"/><circle class="cls-10" cx="774.65" cy="640.6" r="4.14"/><path class="cls-8" d="M831.58,702c5.92-.49,5.26-.6,5.26-.6a31.19,31.19,0,0,0,.47-4.48" transform="translate(-35.02 -54.88)"/><line class="cls-8" x1="805.19" y1="650.58" x2="801.88" y2="646.45"/><circle class="cls-11" cx="1165.71" cy="689.61" r="224.62"/><path class="cls-12" d="M1338.89,842.11,1309,856.46a35.19,35.19,0,0,0-4.83,2.79l-26.92,18.45a12.6,12.6,0,0,1-17.17-4.6l-9.14-15.82-9.27-16.08a12.36,12.36,0,0,1,4.28-16.94,11.76,11.76,0,0,1,1.46-.74l26.59-12a51.52,51.52,0,0,0,8.85-5.11L1307,789.07a11.42,11.42,0,0,1,2.44-1.4,12.59,12.59,0,0,1,15.64,5.35l8.85,15.32,9.56,16.56A12.59,12.59,0,0,1,1338.89,842.11Z" transform="translate(-35.02 -54.88)"/><path class="cls-12" d="M1031,828.75c4.8-3.93,16.6-38.34,16.6-38.34s7.63-32.45,9.79-38c.08-3.12.75-4.06,1.34-4.82a4.08,4.08,0,0,1,3,2.71c1,3.13,14.81,1.37,25,6.32,9.9,4.8,23.3,10.39,23.3,10.39a3.41,3.41,0,0,1,2.1,4.33l-26.39,76.3a3.41,3.41,0,0,1-4.32,2.1s-43.75-17.19-48.27-16.66S1026.14,832.68,1031,828.75Z" transform="translate(-35.02 -54.88)"/><path class="cls-12" d="M1104.14,807.34l-31.93-8.92a36.25,36.25,0,0,0-5.47-1.08l-33.76-6.2c-6.78,2.72-9.33-.8-4.42-6.67l3.74-23.53,2.25-21.08c-2.89-7.08-1.44-10,6.92-5.47,1.11.6,4.93-1.69,6.14-1.32l27.88,8.52a50.92,50.92,0,0,0,10,2l29.65,2.88a11.73,11.73,0,0,1,2.77.55,12.61,12.61,0,0,1,8.23,14.33l-3.45,17.36L1119,797.47A12.6,12.6,0,0,1,1104.14,807.34Z" transform="translate(-35.02 -54.88)"/><rect class="cls-12" x="1072.17" y="793.96" width="87.53" height="57.93" rx="11.59" ry="11.59" transform="translate(-66.06 -11.03) rotate(-2.22)"/><path class="cls-12" d="M1290.14,777.57c3,5.41,34.88,23,34.88,23s30.63,13.14,35.67,16.22c3.06.63,3.87,1.46,4.51,2.17a4.12,4.12,0,0,1-3.19,2.46c-3.26.49-3.92,14.34-10.56,23.54-6.45,8.92-14.28,21.14-14.28,21.14-.43.77.73,3.68-1.23,4.28-2.14.66-2.53-2.48-3.4-3L1262,828.2a3.4,3.4,0,0,1-1.32-4.62s24.57-40.09,24.84-44.68S1287.08,772.2,1290.14,777.57Z" transform="translate(-35.02 -54.88)"/><path class="cls-12" d="M1291.25,837.81,1258,836.12l-31,4.18a11.63,11.63,0,0,1-12-11.13l-1.35-34.73c-.24-6.37,3.37-14.36,11.13-12s20.88,1.85,34.72,2.65,37.59-4.18,37.83-4.28c5.51-2.16,3.8.61,3.7,3.83l-1,14.16a58.59,58.59,0,0,0,.4,12.13l2.07,14.87A11.62,11.62,0,0,1,1291.25,837.81Z" transform="translate(-35.02 -54.88)"/><path class="cls-12" d="M1158.47,865.84c-5.17-6.22-48.2-6.28-48.2-6.28s-40.21,2.13-47.33,1.49c-.23.06-1.84,1.34-2,1.39a3.86,3.86,0,0,1-4.27-5.53s1.4-1.26,1.41-1.28c2.26-3.94-2.41-16.52-.13-30,2.22-13.12,4.17-30.54,4.17-30.54a4.13,4.13,0,0,1,4.31-3.91l97.43,4.79a4.11,4.11,0,0,1,3.9,4.31s-8.48,57.06-4.06,60.68c.7.57,3.67,3,.82,5.49C1163.65,867.13,1160.33,868.07,1158.47,865.84Z" transform="translate(-35.02 -54.88)"/><path class="cls-12" d="M1100.58,842.67c-2.94-5.46-34.5-23.56-34.5-23.56s-30.41-13.64-35.41-16.8c-3-.68-3.84-1.52-4.48-2.24a4.12,4.12,0,0,1,3.23-2.41c3.27-.44,4.16-14.27,11-23.37,6.59-8.81,14.62-20.9,14.62-20.9a3.41,3.41,0,0,1,4.64-1.25l69.92,40.37a3.39,3.39,0,0,1,1.24,4.64s-25.21,39.69-25.56,44.28S1103.53,848.14,1100.58,842.67Z" transform="translate(-35.02 -54.88)"/><path class="cls-12" d="M1263.14,822.59l17,20a24,24,0,0,1-2.77,33.66l-1.13,1c-10,8.5-14.22,22.7-33.66-2.77l-17-20a24,24,0,0,1,2.78-33.66l1.12-1C1245.14,805.76,1254.63,812.57,1263.14,822.59Z" transform="translate(-35.02 -54.88)"/><path class="cls-12" d="M1359.92,859.36s-23.16,17.39-33.62,22.7-32.23,15-32.23,15c-9.39,8.84-13.64,7.63-13.9-3.78l-7.94-12a59.59,59.59,0,0,1-5.26-9.88l-7.48-18c-4.43-6.36-5.8-9.65,1.77-10.3,1.28-.11,21-14.66,36.21-22.74s33.75-14,34.45-14.61c6.88-6.4,9.71-6.27,10.24,5l11.51,16,9.66,19.09C1371.66,853.06,1370.56,856.81,1359.92,859.36Z" transform="translate(-35.02 -54.88)"/><path class="cls-12" d="M1230.63,898.45l-74.49-29.76c-9.32.78-10.28-3.48-2.32-9.78l8.9-21.71a41,41,0,0,0,4-9.28l8-16.49c.23-6.25,4.6-7.55,7.85-2.4l75.86,32.37c8.41-1.14,10,2.37,3.79,9.77,0,0-5.9,16.63-7.36,21.24l-10.86,23C1243.52,907,1238.43,906.59,1230.63,898.45Z" transform="translate(-35.02 -54.88)"/><g class="cls-13"><text class="cls-14" transform="translate(1129.21 802.6)">G</text><text class="cls-15" transform="translate(1151.51 802.6)">ive</text></g><g class="cls-13"><text class="cls-14" transform="translate(1233.18 802.6)">S</text><text class="cls-15" transform="translate(1253.79 802.6)">hhheep</text></g><g class="cls-13"><text class="cls-14" transform="translate(1184.08 802.6)">M</text><text class="cls-15" transform="translate(1209.81 802.6)">e</text></g><path class="cls-16" d="M1299.93,743.43c-6.67-1.12,35.4,8.41,46.16,3.31,6.7-3.18-33.38-18.13-33.38-18.13Z" transform="translate(-35.02 -54.88)"/><path class="cls-16" d="M1289.93,761.63c-5.62-1.82,28.9,11.72,40.55,8.9,7.27-1.76-29.16-22.53-29.16-22.53Z" transform="translate(-35.02 -54.88)"/><path class="cls-16" d="M1212.7,781.2c5.19-5.17-26.15,29.71-38.52,31.78-7.71,1.3,18.77-37.25,18.77-37.25Z" transform="translate(-35.02 -54.88)"/><path class="cls-16" d="M1174,760.49c5.52-3.69-28.69,21.85-39.29,21.41-6.61-.27,24.55-30,24.55-30Z" transform="translate(-35.02 -54.88)"/><path class="cls-16" d="M1286.19,664.56s62.88,1.09,68.88,29.69c6,28.81-56.74,51.76-56.74,51.76" transform="translate(-35.02 -54.88)"/><path class="cls-16" d="M1158.54,692c6.73-6.59,18.45-5.59,23.57-12.07,9.64-12.19,28.51-18.29,47.6-15.15,10,1.64,12-10.6,29.71-9.34,6.45.47,15.06-5.61,23.68-3.52,8.39,2,13.73,5,17.36,8.4,7,6.45,7.66,14.22,11.65,18.89,3.65,4.27,3.78,10.89,5.15,17.58.86,4.17,3.75,7.9,3.56,12.52-.31,7.46-4,17.27-4.22,27.09a25.11,25.11,0,0,1-7,16.92,27.26,27.26,0,0,1-13.73,7.64c-7.32,1.63-12.22,3.52-16.11,5.73-4.92,2.78-10,8-15.87,9.46-11.5,2.83-7.73-.34-15.9,1.06-10.13,1.75-12.35,7.69-18.29,6.46-8.9-1.84-17.51,2.1-25.55,4-12.49,3-13.09-4.59-22.52-5.38-7.89-.66-9-6.85-12.54-8.34-7.85-3.27-7-13.36-12.37-17.05-7-4.75-7.18-8.83-8.19-12.2-2.58-8.61,4.15-9.79-1.51-22.43C1144.74,717.26,1142.54,707.62,1158.54,692Z" transform="translate(-35.02 -54.88)"/><path class="cls-17" d="M1282,709c.71-1.58,4.33-8.72,11.6-10.21a8.87,8.87,0,0,1,6,1.18,7.38,7.38,0,0,1,1.82,10c-3.34,5-11.14,6.72-17.12,4.14a15.38,15.38,0,0,1-9-14.64c.43-7.57,7-11.75,9.38-13.3,9.41-6,17-3.13,17-3.13s-.5-8-.3-15.37c-11.28-1.65-19.46,3.69-23.89,6.71a31.46,31.46,0,0,0-12,14.57,28.17,28.17,0,0,0-.83,19.41c.43,1.27,5.09,14.38,17.92,17.2a24.17,24.17,0,0,0,16.54-2.61c2.21-1.21,8.84-4.82,11-12.49.39-1.4,2.63-10-2.6-15-3.69-3.5-9.14-3.78-11.27-3.63a17.11,17.11,0,0,0-9.45,4.31C1281.52,700.89,1281.93,708,1282,709Z" transform="translate(-35.02 -54.88)"/><path class="cls-18" d="M1270.24,680.85c.1.41,2,4.82,4.3,6.63,2.47,2,5,2.48,5.51,2.26" transform="translate(-35.02 -54.88)"/><path class="cls-18" d="M1272.49,678.2a17.23,17.23,0,0,0,4.21,6.81,9.24,9.24,0,0,0,6.44,2.19" transform="translate(-35.02 -54.88)"/><path class="cls-18" d="M1263.76,704.49c.25.34,1.67,1.84,5.58,2a10.72,10.72,0,0,0,6.51-2.54" transform="translate(-35.02 -54.88)"/><path class="cls-18" d="M1263.26,701.13c.24.35,1.69,2.53,5.6,2.66a10.84,10.84,0,0,0,6.47-2.29" transform="translate(-35.02 -54.88)"/><path class="cls-18" d="M1299.25,712.34a6,6,0,0,1,3.56,3c1.54,2.61,1.5,3.83,1.36,4.24" transform="translate(-35.02 -54.88)"/><path class="cls-18" d="M1285.89,714.63a8.54,8.54,0,0,1-1.23,6.49c-2.18,3.19-4.57,3.48-5.12,3.55" transform="translate(-35.02 -54.88)"/><path class="cls-18" d="M1283.78,713.72a7.38,7.38,0,0,1-.88,6.28,7.78,7.78,0,0,1-5.84,3.42" transform="translate(-35.02 -54.88)"/><path class="cls-18" d="M1297.51,713.59a5.82,5.82,0,0,1,3.76,2.91c1.54,2.61.91,4.34.77,4.76" transform="translate(-35.02 -54.88)"/><path class="cls-18" d="M1300.43,700.29a6.91,6.91,0,0,1,4.32-2.75c3-.56,4.44.42,4.78.69" transform="translate(-35.02 -54.88)"/><path class="cls-18" d="M1301.6,701.76a5.42,5.42,0,0,1,3.86-2.67,5.54,5.54,0,0,1,4.87,1" transform="translate(-35.02 -54.88)"/><path class="cls-9" d="M1298.7,663.2c-5.75,1.54-8.79,4.88-6.67,9.4,1.5,3.19,5.11,3.34,5.49,6.22.35,2.63-2.54,3.53-2.16,6,.42,2.83,4.17,4,7.33,3.23,5.52-1.37,7.79-.55,6.43-5.36C1303.14,661.76,1299.94,662.9,1298.7,663.2Z" transform="translate(-35.02 -54.88)"/><circle class="cls-19" cx="1291.86" cy="629.95" r="4.07"/><path class="cls-18" d="M1347.27,694.27c5.83.37,5.21.16,5.21.16a30.2,30.2,0,0,0,1.1-4.28" transform="translate(-35.02 -54.88)"/><line class="cls-18" x1="1320.15" y1="644.04" x2="1317.53" y2="639.54"/><circle class="cls-11" cx="1632.81" cy="689.61" r="224.62"/><path class="cls-12" d="M1806,842.11l-29.89,14.35a34.61,34.61,0,0,0-4.83,2.79l-26.92,18.45a12.6,12.6,0,0,1-17.17-4.6l-9.14-15.82-9.27-16.08a12.35,12.35,0,0,1,4.28-16.94,11.76,11.76,0,0,1,1.46-.74l26.59-12a51.91,51.91,0,0,0,8.85-5.11l24.15-17.34a11,11,0,0,1,2.44-1.4,12.59,12.59,0,0,1,15.64,5.35l8.85,15.32,9.56,16.56A12.6,12.6,0,0,1,1806,842.11Z" transform="translate(-35.02 -54.88)"/><path class="cls-12" d="M1498.1,828.75c4.8-3.93,16.6-38.34,16.6-38.34s7.63-32.45,9.79-38c.08-3.12.75-4.06,1.34-4.82a4.11,4.11,0,0,1,3,2.71c1.05,3.13,14.81,1.37,25,6.32,9.9,4.8,23.3,10.39,23.3,10.39a3.42,3.42,0,0,1,2.1,4.33l-26.39,76.3a3.41,3.41,0,0,1-4.32,2.1s-43.75-17.19-48.27-16.66S1493.25,832.68,1498.1,828.75Z" transform="translate(-35.02 -54.88)"/><path class="cls-12" d="M1571.25,807.34l-31.93-8.92a36.25,36.25,0,0,0-5.47-1.08l-33.76-6.2c-6.78,2.72-9.33-.8-4.42-6.67l3.74-23.53,2.25-21.08c-2.89-7.08-1.44-10,6.92-5.47,1.11.6,4.93-1.69,6.14-1.32l27.88,8.52a50.92,50.92,0,0,0,10,2l29.65,2.88a11.93,11.93,0,0,1,2.77.55,12.62,12.62,0,0,1,8.23,14.33l-3.45,17.36-3.73,18.76A12.6,12.6,0,0,1,1571.25,807.34Z" transform="translate(-35.02 -54.88)"/><rect class="cls-12" x="1539.28" y="793.96" width="87.53" height="57.93" rx="11.59" ry="11.59" transform="translate(-65.71 7.06) rotate(-2.22)"/><path class="cls-12" d="M1757.25,777.57c3,5.41,34.88,23,34.88,23s30.63,13.14,35.67,16.22c3.06.63,3.87,1.46,4.51,2.17a4.12,4.12,0,0,1-3.19,2.46c-3.26.49-3.92,14.34-10.56,23.54-6.45,8.92-14.28,21.14-14.28,21.14-.43.77.73,3.68-1.23,4.28-2.14.66-2.53-2.48-3.4-3l-70.57-39.18a3.4,3.4,0,0,1-1.32-4.62s24.57-40.09,24.84-44.68S1754.19,772.2,1757.25,777.57Z" transform="translate(-35.02 -54.88)"/><path class="cls-12" d="M1758.36,837.81l-33.28-1.69-31,4.18a11.62,11.62,0,0,1-12-11.13l-1.35-34.73c-.24-6.37,3.37-14.36,11.13-12s20.88,1.85,34.72,2.65,37.59-4.18,37.83-4.28c5.51-2.16,3.8.61,3.7,3.83l-1,14.16a57.91,57.91,0,0,0,.4,12.13l2.07,14.87A11.63,11.63,0,0,1,1758.36,837.81Z" transform="translate(-35.02 -54.88)"/><path class="cls-12" d="M1625.58,865.84c-5.17-6.22-48.2-6.28-48.2-6.28s-40.21,2.13-47.33,1.49c-.23.06-1.84,1.34-2,1.39a3.85,3.85,0,0,1-4.6-2.94,3.82,3.82,0,0,1,.33-2.59s1.4-1.26,1.41-1.28c2.26-3.94-2.41-16.52-.13-30,2.22-13.12,4.17-30.54,4.17-30.54a4.13,4.13,0,0,1,4.31-3.91L1631,796a4.13,4.13,0,0,1,3.9,4.31s-8.48,57.06-4.06,60.68c.7.57,3.67,3,.82,5.49C1630.76,867.13,1627.44,868.07,1625.58,865.84Z" transform="translate(-35.02 -54.88)"/><path class="cls-12" d="M1567.69,842.67c-2.94-5.46-34.5-23.56-34.5-23.56s-30.41-13.64-35.41-16.8c-3-.68-3.84-1.52-4.48-2.24a4.11,4.11,0,0,1,3.23-2.41c3.27-.44,4.16-14.27,11-23.37,6.59-8.81,14.62-20.9,14.62-20.9a3.41,3.41,0,0,1,4.64-1.25l69.92,40.37a3.4,3.4,0,0,1,1.24,4.64s-25.21,39.69-25.56,44.28S1570.64,848.14,1567.69,842.67Z" transform="translate(-35.02 -54.88)"/><path class="cls-12" d="M1730.25,822.59l17,20a24,24,0,0,1-2.77,33.66l-1.13,1c-10,8.5-14.22,22.7-33.66-2.77l-17-20a24,24,0,0,1,2.78-33.66l1.12-1C1712.25,805.76,1721.74,812.57,1730.25,822.59Z" transform="translate(-35.02 -54.88)"/><path class="cls-12" d="M1827,859.36s-23.16,17.39-33.62,22.7-32.23,15-32.23,15c-9.39,8.84-13.64,7.63-13.9-3.78l-7.94-12a58.14,58.14,0,0,1-5.26-9.88l-7.48-18c-4.43-6.36-5.8-9.65,1.77-10.3,1.28-.11,21-14.66,36.21-22.74s33.75-14,34.45-14.61c6.88-6.4,9.71-6.27,10.24,5l11.51,16,9.66,19.09C1838.77,853.06,1837.67,856.81,1827,859.36Z" transform="translate(-35.02 -54.88)"/><path class="cls-12" d="M1697.74,898.45l-74.49-29.76c-9.32.78-10.28-3.48-2.32-9.78l8.9-21.71a41.43,41.43,0,0,0,4-9.28l8-16.49c.23-6.25,4.6-7.55,7.85-2.4l75.86,32.37c8.41-1.14,10,2.37,3.79,9.77,0,0-5.9,16.63-7.36,21.24l-10.86,23C1710.63,907,1705.54,906.59,1697.74,898.45Z" transform="translate(-35.02 -54.88)"/><g class="cls-13"><text class="cls-14" transform="translate(1596.31 802.6)">G</text><text class="cls-15" transform="translate(1618.61 802.6)">ive</text></g><g class="cls-13"><text class="cls-14" transform="translate(1700.28 802.6)">S</text><text class="cls-15" transform="translate(1720.89 802.6)">hhheep</text></g><g class="cls-13"><text class="cls-14" transform="translate(1651.18 802.6)">M</text><text class="cls-15" transform="translate(1676.91 802.6)">e</text></g><path class="cls-16" d="M1816.69,734.34c-6.29-2.47,32.93,15.49,44.51,12.7,7.21-1.74-29-24.58-29-24.58Z" transform="translate(-35.02 -54.88)"/><path class="cls-16" d="M1805.19,750.74c-5-3.23,24.82,18.87,36.81,19.19,7.47.2-22.26-29.36-22.26-29.36Z" transform="translate(-35.02 -54.88)"/><path class="cls-16" d="M1710,755.6c4.94-5.41-24.71,30.92-37,33.58-7.64,1.66,17-38.1,17-38.1Z" transform="translate(-35.02 -54.88)"/><path class="cls-16" d="M1684.56,734.9c6-2.79-31.72,17.17-42.12,15.11-6.49-1.28,28.87-25.88,28.87-25.88Z" transform="translate(-35.02 -54.88)"/><path class="cls-16" d="M1810.78,656.78s62.47,7.62,65.47,36.69c3,29.28-61.81,45.59-61.81,45.59" transform="translate(-35.02 -54.88)"/><path class="cls-16" d="M1681,670.77c7.38-5.86,18.93-3.64,24.7-9.56,10.85-11.12,30.25-15.23,48.91-10.12,9.74,2.67,13.08-9.29,30.52-6.2,6.37,1.14,15.56-4,23.92-1,8.13,2.89,13.13,6.43,16.39,10.16,6.26,7.14,6.14,14.93,9.62,20,3.19,4.63,2.63,11.23,3.3,18,.42,4.24,2.91,8.26,2.24,12.83-1.08,7.39-5.77,16.77-7,26.5a25.09,25.09,0,0,1-8.74,16.1,27.24,27.24,0,0,1-14.45,6.17c-7.45.87-12.52,2.24-16.62,4-5.18,2.26-10.81,7-16.76,7.77-11.73,1.62-7.66-1.15-15.93-.6-10.26.69-13.08,6.36-18.87,4.53-8.65-2.76-17.63.26-25.83,1.37-12.73,1.71-12.54-5.93-21.84-7.7-7.77-1.47-8.21-7.74-11.6-9.59-7.47-4.06-5.54-14-10.53-18.24-6.43-5.46-6.23-9.54-6.88-13-1.67-8.83,5.14-9.31.83-22.46C1664.62,694.5,1663.43,684.68,1681,670.77Z" transform="translate(-35.02 -54.88)"/><path class="cls-17" d="M1802,700.51c.87-1.49,5.22-8.23,12.6-9a8.83,8.83,0,0,1,5.88,1.8,7.36,7.36,0,0,1,.77,10.15c-3.84,4.66-11.78,5.53-17.45,2.34a15.32,15.32,0,0,1-7.45-15.49c1.21-7.49,8.14-11,10.71-12.26,10-5,17.18-1.35,17.18-1.35s.34-8,1.3-15.31c-11-2.82-19.74,1.64-24.46,4.19a31.22,31.22,0,0,0-13.41,13.24,28.28,28.28,0,0,0-2.85,19.22c.29,1.31,3.57,14.83,16,19a24.14,24.14,0,0,0,16.72-.88c2.33-1,9.29-3.87,12.23-11.27.54-1.36,3.66-9.69-1-15.16-3.31-3.86-8.71-4.7-10.83-4.78a17,17,0,0,0-9.85,3.31C1802.36,692.43,1802,699.53,1802,700.51Z" transform="translate(-35.02 -54.88)"/><path class="cls-18" d="M1793.25,671.33c0,.42,1.51,5,3.58,7,2.26,2.2,4.71,3,5.25,2.82" transform="translate(-35.02 -54.88)"/><path class="cls-18" d="M1795.74,668.91a17.15,17.15,0,0,0,3.48,7.22,9.22,9.22,0,0,0,6.13,2.88" transform="translate(-35.02 -54.88)"/><path class="cls-18" d="M1784.33,694.2c.21.36,1.47,2,5.34,2.54a10.65,10.65,0,0,0,6.73-1.84" transform="translate(-35.02 -54.88)"/><path class="cls-18" d="M1784.17,690.77c.21.37,1.43,2.69,5.3,3.23a10.8,10.8,0,0,0,6.67-1.61" transform="translate(-35.02 -54.88)"/><path class="cls-18" d="M1818.81,705.66A6,6,0,0,1,1822,709c1.26,2.76,1.09,4,.91,4.36" transform="translate(-35.02 -54.88)"/><path class="cls-18" d="M1805.25,706.55a8.62,8.62,0,0,1-1.9,6.33c-2.49,3-4.91,3-5.46,3" transform="translate(-35.02 -54.88)"/><path class="cls-18" d="M1803.25,705.42a7.5,7.5,0,0,1-1.53,6.17,7.75,7.75,0,0,1-6.17,2.78" transform="translate(-35.02 -54.88)"/><path class="cls-18" d="M1817,706.72a5.83,5.83,0,0,1,3.43,3.29c1.27,2.76.46,4.41.28,4.81" transform="translate(-35.02 -54.88)"/><path class="cls-18" d="M1821.25,693.8a6.88,6.88,0,0,1,4.59-2.28c3-.26,4.37.87,4.68,1.17" transform="translate(-35.02 -54.88)"/><path class="cls-18" d="M1822.25,695.38a5.4,5.4,0,0,1,4.12-2.25,5.56,5.56,0,0,1,4.74,1.55" transform="translate(-35.02 -54.88)"/><path class="cls-9" d="M1823.37,656.76c-5.88.93-9.26,3.94-7.62,8.65,1.17,3.34,4.74,3.86,4.82,6.76.07,2.65-2.9,3.25-2.78,5.76.13,2.86,3.74,4.43,7,4,5.63-.78,7.8.27,6.94-4.66C1828,655.77,1824.63,656.56,1823.37,656.76Z" transform="translate(-35.02 -54.88)"/><circle class="cls-19" cx="1814.12" cy="626.29" r="4.07"/><path class="cls-18" d="M1868.44,692.68c5.77,1,5.17.7,5.17.7a30.87,30.87,0,0,0,1.54-4.15" transform="translate(-35.02 -54.88)"/><line class="cls-18" x1="1840.79" y1="643.24" x2="1838.65" y2="638.49"/><ellipse class="cls-20" cx="226.07" cy="226.78" rx="224.62" ry="225.33"/><path class="cls-21" d="M354.09,269.54c-10.61-2.57,56.11,17.6,73.83,10.58,11.19-4.35-51.6-33.15-51.6-33.15Z" transform="translate(-35.02 -54.88)"/><path class="cls-21" d="M345,294c-7.5-5.92,37.3,33.84,56.52,36,12,1.33-31.71-50.36-31.71-50.36Z" transform="translate(-35.02 -54.88)"/><path class="cls-22" d="M399.36,379.6,369.47,394a33.83,33.83,0,0,0-4.81,2.79L337.73,415.3a12.56,12.56,0,0,1-17.16-4.62l-9.16-15.88-9.51-16.12A12.75,12.75,0,0,1,304.44,363a12.42,12.42,0,0,1,3.22-2l26.58-12a50.38,50.38,0,0,0,8.86-5.12l24.13-17.4a14.07,14.07,0,0,1,2.45-1.39,12.62,12.62,0,0,1,15.65,5.36l8.86,15.38,9.57,16.62A12.64,12.64,0,0,1,399.36,379.6Z" transform="translate(-35.02 -54.88)"/><path class="cls-22" d="M91.34,366.18c4.81-3.94,16.62-38.51,16.62-38.51s7.62-32.59,9.78-38.07a7,7,0,0,1,1.36-4.83,4.09,4.09,0,0,1,3,2.73c1.06,3.14,14.77,1.36,25,6.34s23.28,10.43,23.28,10.43a3.43,3.43,0,0,1,2.12,4.32l-26.4,76.55a3.46,3.46,0,0,1-4.31,2.11S98,369.94,93.46,370.48,86.55,370.12,91.34,366.18Z" transform="translate(-35.02 -54.88)"/><path class="cls-22" d="M164.49,344.73l-31.93-8.88a37.37,37.37,0,0,0-5.46-1.07l-33.78-6.22c-6.77,2.72-9.31-.8-4.4-6.7l3.72-23.7L94.91,277c-3-7.08-1.45-10,6.91-5.48,1.12.62,4.93-1.69,6.14-1.33l27.88,8.56a52.7,52.7,0,0,0,10,2l29.54,3a11,11,0,0,1,2.77.57,12.7,12.7,0,0,1,8.24,14.37L183,316.09l-3.72,18.81A12.64,12.64,0,0,1,164.49,344.73Z" transform="translate(-35.02 -54.88)"/><path class="cls-22" d="M143,332.56l64.33-2.5a11.59,11.59,0,0,1,12,11.15l1.35,34.85a11.61,11.61,0,0,1-11.12,12.05l-64.33,2.5a11.59,11.59,0,0,1-12-11.15l-1.35-34.85A11.59,11.59,0,0,1,143,332.56Z" transform="translate(-35.02 -54.88)"/><path class="cls-22" d="M350.48,314.84c3,5.45,34.88,23.08,34.88,23.08S416,351.13,421,354.21a7,7,0,0,1,4.51,2.17,4.16,4.16,0,0,1-3.18,2.46c-3.28.5-3.93,14.39-10.58,23.7s-14.29,21.18-14.29,21.18c-.41.77.74,3.7-1.21,4.32s-2.54-2.51-3.4-3l-70.55-39.34a3.41,3.41,0,0,1-1.34-4.63v0s24.57-40.21,24.84-44.83S347.44,309.42,350.48,314.84Z" transform="translate(-35.02 -54.88)"/><path class="cls-22" d="M351.61,375.28l-33.29-1.69-31,4.18a11.64,11.64,0,0,1-12-11.14l-1.32-34.84c-.27-6.4,3.36-14.43,11.1-12.09s20.88,1.87,34.73,2.67,37.59-4.3,37.83-4.3c5.52-2.16,3.81.62,3.69,3.85l-1,14.19a58.38,58.38,0,0,0,.38,12.18l2.07,14.81a11.63,11.63,0,0,1-11.05,12.17Z" transform="translate(-35.02 -54.88)"/><path class="cls-22" d="M218.83,403.39c-5.17-6.22-48.2-6.28-48.2-6.28s-40.22,2.13-47.25,1.48c-.21,0-1.83,1.37-2,1.4a3.88,3.88,0,0,1-4.28-5.54l1.42-1.28c2.27-4-2.39-16.59,0-30.16s4.16-30.63,4.16-30.63a4.14,4.14,0,0,1,4.31-3.91l97.46,4.8a4.14,4.14,0,0,1,3.9,4.32s-8.48,57.24-4.08,60.88c.71.57,3.69,3,.83,5.51A4.67,4.67,0,0,1,218.83,403.39Z" transform="translate(-35.02 -54.88)"/><path class="cls-22" d="M161,380.28c-3-5.48-34.5-23.7-34.5-23.7S96,342.9,91,339.73a7,7,0,0,1-4.49-2.25,4,4,0,0,1,3.22-2.4c3.28-.45,4.17-14.34,11-23.47s14.62-21,14.62-21a3.45,3.45,0,0,1,4.63-1.25l70,40.53a3.42,3.42,0,0,1,1.24,4.65S165.94,374.39,165.58,379,163.9,385.65,161,380.28Z" transform="translate(-35.02 -54.88)"/><path class="cls-22" d="M323.49,360l16.95,20.06a24.07,24.07,0,0,1-2.77,33.77l-1.13.95c-10,8.53-14.23,22.78-33.66-2.79L285.93,392a24.08,24.08,0,0,1,2.77-33.78l1.12-.94C305.51,343.13,315,350,323.49,360Z" transform="translate(-35.02 -54.88)"/><path class="cls-22" d="M420.27,396.9s-23.15,17.45-33.61,22.79-32.22,15.08-32.22,15.08c-9.39,8.88-13.64,7.64-13.91-3.8l-7.94-12.17a57.94,57.94,0,0,1-5.26-9.9l-7.47-18c-4.43-6.37-5.91-9.69,1.77-10.34,1.27,0,21-14.81,36.21-22.81s33.72-14,34.43-14.64c6.88-6.42,9.72-6.31,10.25,5L414,364.14l9.65,19.14C432,390.59,430.93,394.36,420.27,396.9Z" transform="translate(-35.02 -54.88)"/><path class="cls-22" d="M291,436.13l-74.49-29.86c-9.3.77-10.27-3.5-2.3-9.81l8.86-21.83a43,43,0,0,0,4-9.31l8-16.56c.21-6.25,4.61-7.55,7.83-2.4L318.8,379c8.41-1.12,10,2.4,3.78,9.81,0,0-5.91,16.68-7.36,21.3l-10.84,23.05C303.88,444.66,299,444.28,291,436.13Z" transform="translate(-35.02 -54.88)"/><path class="cls-21" d="M224.11,354.72c3.81-11.23-16.62,61.8-33,73.68-10.22,7.37.56-67.49.56-67.49Z" transform="translate(-35.02 -54.88)"/><path class="cls-21" d="M172,351.22c5.91-8.89-29.21,50.37-45.27,56.29-10,3.7,18-60.05,18-60.05Z" transform="translate(-35.02 -54.88)"/><path class="cls-21" d="M313.72,154.6s100.55-13.07,116.86,31.31-78.47,96.2-78.47,96.2" transform="translate(-35.02 -54.88)"/><path class="cls-21" d="M116.47,228.51c9.21-12.14,28.14-13.27,34.79-24.85,12.49-21.78,41.17-36,72.35-35.55,16.3.26,16.75-19.82,45.22-22,10.39-.77,22.71-12.53,36.94-11.2s23.1,4.83,29.68,9.34c12.61,8.71,15.54,21,23,27.49,6.85,5.92,8.59,16.56,12.34,26.93,2.36,6.46,7.86,11.85,8.63,19.2,1.27,12-2.31,28.59-.39,44.43a40.64,40.64,0,0,1-7.23,28.74,43.75,43.75,0,0,1-20.12,15.44,92,92,0,0,0-24.33,13c-7.21,5.63-14.12,15.23-23.09,18.9-17.72,7.2-12.44,1.25-25.14,5.43C263.39,349,261.24,359,251.46,358.45c-14.62-.83-27.43,7.5-39.81,12.5-19.19,7.79-21.94-4.26-37.18-3.29-12.73.8-15.92-8.88-21.94-10.39-13.32-3.38-14.27-19.74-23.63-24.39-12.22-5.92-13.52-12.44-16-17.59-6.11-13.16,4.35-16.65-7.67-35.56C100.4,272.27,94.65,257.34,116.47,228.51Z" transform="translate(-35.02 -54.88)"/><path class="cls-23" d="M317.44,226.65c.76-2.7,4.87-15,16.09-19.08a14.24,14.24,0,0,1,9.92.47,11.87,11.87,0,0,1,5.26,15.58c-4.13,8.89-16.18,13.4-26.31,10.67A24.8,24.8,0,0,1,304.68,213c-1.09-12.21,8.33-20.44,11.81-23.49,13.59-11.85,26.29-8.89,26.29-8.89s-2.66-12.71-4.08-24.5c-18.4,0-30.18,10.49-36.53,16.35a50.77,50.77,0,0,0-15.68,26.13,45.88,45.88,0,0,0,3.22,31.26c1,1.92,11.51,21.8,32.63,23.31a38.8,38.8,0,0,0,25.78-8.09c3.25-2.46,13-9.77,14.62-22.57.29-2.31,1.83-16.62-7.65-23.32A25.52,25.52,0,0,0,336.25,196a27.59,27.59,0,0,0-14.06,9.13A26.23,26.23,0,0,0,317.44,226.65Z" transform="translate(-35.02 -54.88)"/><path class="cls-24" d="M292.07,184.43a30.08,30.08,0,0,0,8.42,9.6,13.72,13.72,0,0,0,9.33,2.31" transform="translate(-35.02 -54.88)"/><path class="cls-24" d="M295,179.63a27.75,27.75,0,0,0,8.33,9.92,14.71,14.71,0,0,0,10.72,2" transform="translate(-35.02 -54.88)"/><path class="cls-24" d="M287.28,223.77c.48.51,3.11,2.58,9.37,1.87a17.12,17.12,0,0,0,9.77-5.6" transform="translate(-35.02 -54.88)"/><path class="cls-24" d="M285.69,218.53a10.65,10.65,0,0,0,9.57,3,17.7,17.7,0,0,0,9.77-5.18" transform="translate(-35.02 -54.88)"/><path class="cls-24" d="M345.73,228a9.62,9.62,0,0,1,6.41,4c2.95,3.82,3.28,5.78,3.16,6.49" transform="translate(-35.02 -54.88)"/><path class="cls-24" d="M325,234.79a13.94,13.94,0,0,1-.45,10.7,11.61,11.61,0,0,1-7.32,6.87" transform="translate(-35.02 -54.88)"/><path class="cls-24" d="M321.39,233.85a11.88,11.88,0,0,1,0,10.25,12.4,12.4,0,0,1-8.5,6.84" transform="translate(-35.02 -54.88)"/><path class="cls-24" d="M343.25,230.41a9.32,9.32,0,0,1,6.67,3.76,8.69,8.69,0,0,1,2.37,7.44" transform="translate(-35.02 -54.88)"/><path class="cls-24" d="M344.78,208.46A11.19,11.19,0,0,1,351,203a9.47,9.47,0,0,1,7.8,0" transform="translate(-35.02 -54.88)"/><path class="cls-24" d="M347,210.5a8.64,8.64,0,0,1,5.52-5.18,9,9,0,0,1,8,.53" transform="translate(-35.02 -54.88)"/><path class="cls-9" d="M333.33,149.53c-8.86,3.82-12.88,9.87-8.42,16.59,3.13,4.77,8.86,4.15,10.22,8.68s-3.25,6.25-2,10.13c1.33,4.45,7.59,5.45,12.43,3.47,8.51-3.5,12.32-2.73,9-10.1C340.12,146.24,335.22,148.7,333.33,149.53Z" transform="translate(-35.02 -54.88)"/><ellipse class="cls-25" cx="348.34" cy="122.56" rx="6.56" ry="6.58"/><path class="cls-24" d="M418.11,187.72c9.36-.8,8.33-1,8.33-1a49.87,49.87,0,0,0,.77-7.11" transform="translate(-35.02 -54.88)"/><line class="cls-24" x1="396.77" y1="138.47" x2="391.54" y2="131.86"/><g class="cls-13"><text class="cls-26" transform="translate(189.57 340.13)">G</text><text class="cls-27" transform="translate(211.87 340.13)">ive</text></g><g class="cls-13"><text class="cls-26" transform="translate(293.52 340.13)">S</text><text class="cls-27" transform="translate(314.14 340.13)">hhheep</text></g><g class="cls-13"><text class="cls-26" transform="translate(244.44 340.13)">M</text><text class="cls-27" transform="translate(270.16 340.13)">e</text></g></svg>